<svg xmlns="http://www.w3.org/2000/svg" xmlns:xlink="http://www.w3.org/1999/xlink" width="500" zoomAndPan="magnify" viewBox="0 0 375 374.999991" height="500" preserveAspectRatio="xMidYMid meet" version="1.0"><defs><g/><clipPath id="a99ed924a4"><path d="M 64.390625 150.765625 L 134.871094 150.765625 L 134.871094 224.277344 L 64.390625 224.277344 Z M 64.390625 150.765625 " clip-rule="nonzero"/></clipPath><clipPath id="6556c754a8"><path d="M 99.632812 150.765625 C 80.167969 150.765625 64.390625 167.210938 64.390625 187.5 C 64.390625 207.789062 80.167969 224.234375 99.632812 224.234375 C 119.09375 224.234375 134.871094 207.789062 134.871094 187.5 C 134.871094 167.210938 119.09375 150.765625 99.632812 150.765625 Z M 99.632812 150.765625 " clip-rule="nonzero"/></clipPath><clipPath id="38685450da"><path d="M 85 189 L 86 189 L 86 190 L 85 190 Z M 85 189 " clip-rule="nonzero"/></clipPath><clipPath id="0ea3bed4b9"><path d="M 66.664062 157.363281 L 149.921875 185.082031 L 136.890625 224.21875 L 53.636719 196.503906 Z M 66.664062 157.363281 " clip-rule="nonzero"/></clipPath><clipPath id="fc692715f2"><path d="M 150.199219 185.175781 L 66.941406 157.457031 L 53.914062 196.59375 L 137.171875 224.3125 Z M 150.199219 185.175781 " clip-rule="nonzero"/></clipPath><clipPath id="ce2cfc15a5"><path d="M 106 202 L 107 202 L 107 203 L 106 203 Z M 106 202 " clip-rule="nonzero"/></clipPath><clipPath id="f18ac244a2"><path d="M 66.664062 157.363281 L 149.921875 185.082031 L 136.890625 224.21875 L 53.636719 196.503906 Z M 66.664062 157.363281 " clip-rule="nonzero"/></clipPath><clipPath id="aa16bdc088"><path d="M 150.199219 185.175781 L 66.941406 157.457031 L 53.914062 196.59375 L 137.171875 224.3125 Z M 150.199219 185.175781 " clip-rule="nonzero"/></clipPath><clipPath id="1a03b71b27"><path d="M 117 210 L 118 210 L 118 211 L 117 211 Z M 117 210 " clip-rule="nonzero"/></clipPath><clipPath id="0369f1eed0"><path d="M 66.664062 157.363281 L 149.921875 185.082031 L 136.890625 224.21875 L 53.636719 196.503906 Z M 66.664062 157.363281 " clip-rule="nonzero"/></clipPath><clipPath id="eff7c103db"><path d="M 150.199219 185.175781 L 66.941406 157.457031 L 53.914062 196.59375 L 137.171875 224.3125 Z M 150.199219 185.175781 " clip-rule="nonzero"/></clipPath><clipPath id="84bc8939f3"><path d="M 86 187 L 140 187 L 140 223 L 86 223 Z M 86 187 " clip-rule="nonzero"/></clipPath><clipPath id="602f28657e"><path d="M 66.664062 157.363281 L 149.921875 185.082031 L 136.890625 224.21875 L 53.636719 196.503906 Z M 66.664062 157.363281 " clip-rule="nonzero"/></clipPath><clipPath id="81725ced83"><path d="M 150.199219 185.175781 L 66.941406 157.457031 L 53.914062 196.59375 L 137.171875 224.3125 Z M 150.199219 185.175781 " clip-rule="nonzero"/></clipPath><clipPath id="561dc9e954"><path d="M 144.09375 203.511719 L 87.855469 184.789062 L 80.964844 205.484375 L 137.207031 224.207031 Z M 144.09375 203.511719 " clip-rule="nonzero"/></clipPath><clipPath id="7c0f8c8f74"><path d="M 63 187 L 64 187 L 64 188 L 63 188 Z M 63 187 " clip-rule="nonzero"/></clipPath><clipPath id="f2ae0c9e57"><path d="M 66.664062 157.363281 L 149.921875 185.082031 L 136.890625 224.21875 L 53.636719 196.503906 Z M 66.664062 157.363281 " clip-rule="nonzero"/></clipPath><clipPath id="85ce0db252"><path d="M 150.199219 185.175781 L 66.941406 157.457031 L 53.914062 196.59375 L 137.171875 224.3125 Z M 150.199219 185.175781 " clip-rule="nonzero"/></clipPath><clipPath id="b922aab16c"><path d="M 64 159 L 93 159 L 93 191 L 64 191 Z M 64 159 " clip-rule="nonzero"/></clipPath><clipPath id="157d6c09dd"><path d="M 66.664062 157.363281 L 149.921875 185.082031 L 136.890625 224.21875 L 53.636719 196.503906 Z M 66.664062 157.363281 " clip-rule="nonzero"/></clipPath><clipPath id="d8f4a0bb08"><path d="M 150.199219 185.175781 L 66.941406 157.457031 L 53.914062 196.59375 L 137.171875 224.3125 Z M 150.199219 185.175781 " clip-rule="nonzero"/></clipPath></defs><g clip-path="url(#a99ed924a4)"><g clip-path="url(#6556c754a8)"><path fill="#d697ff" d="M 64.390625 150.765625 L 134.871094 150.765625 L 134.871094 224.277344 L 64.390625 224.277344 Z M 64.390625 150.765625 " fill-opacity="1" fill-rule="nonzero"/></g></g><g clip-path="url(#38685450da)"><g clip-path="url(#0ea3bed4b9)"><g clip-path="url(#fc692715f2)"><path fill="#eacaff" d="M 85.675781 189.757812 L 85.683594 189.75 L 85.683594 189.753906 Z M 85.675781 189.757812 " fill-opacity="1" fill-rule="nonzero"/></g></g></g><g clip-path="url(#ce2cfc15a5)"><g clip-path="url(#f18ac244a2)"><g clip-path="url(#aa16bdc088)"><path fill="#eacaff" d="M 106.394531 202.464844 C 106.398438 202.457031 106.402344 202.453125 106.410156 202.445312 C 106.40625 202.453125 106.398438 202.457031 106.394531 202.464844 " fill-opacity="1" fill-rule="nonzero"/></g></g></g><g clip-path="url(#1a03b71b27)"><g clip-path="url(#0369f1eed0)"><g clip-path="url(#eff7c103db)"><path fill="#eacaff" d="M 117.367188 210.40625 C 117.367188 210.40625 117.363281 210.410156 117.363281 210.410156 L 117.367188 210.40625 " fill-opacity="1" fill-rule="nonzero"/></g></g></g><g clip-path="url(#84bc8939f3)"><g clip-path="url(#602f28657e)"><g clip-path="url(#81725ced83)"><g clip-path="url(#561dc9e954)"><path fill="#eacaff" d="M 138.066406 220.433594 C 137.699219 220.859375 137.253906 221.222656 136.769531 221.492188 C 136.285156 221.765625 135.769531 221.949219 135.253906 222.066406 C 134.222656 222.300781 133.214844 222.289062 132.253906 222.1875 C 131.292969 222.078125 130.371094 221.867188 129.472656 221.613281 C 128.578125 221.355469 127.710938 221.039062 126.859375 220.699219 C 125.160156 220.011719 123.535156 219.199219 121.960938 218.308594 C 121.175781 217.863281 120.402344 217.402344 119.644531 216.921875 C 118.882812 216.441406 118.132812 215.945312 117.394531 215.4375 C 116.242188 214.640625 115.117188 213.816406 114.007812 212.964844 C 113.292969 212.414062 112.585938 211.851562 111.882812 211.285156 C 110.894531 210.480469 109.917969 209.664062 108.953125 208.835938 C 107.34375 207.449219 105.753906 206.039062 104.183594 204.613281 C 103.546875 204.035156 102.910156 203.453125 102.277344 202.871094 C 101.855469 202.484375 101.4375 202.097656 101.015625 201.710938 C 98.410156 199.296875 95.832031 196.859375 93.28125 194.386719 C 91.582031 192.734375 89.871094 191.0625 88.191406 189.382812 C 87.886719 189.074219 87.382812 188.566406 87.050781 188.230469 C 86.828125 188.003906 86.898438 187.613281 87.195312 187.5 C 87.214844 187.496094 87.230469 187.488281 87.246094 187.484375 C 87.675781 187.386719 88.125 187.53125 88.421875 187.859375 C 88.59375 188.050781 88.777344 188.257812 88.90625 188.40625 C 90.527344 190.234375 92.183594 192.027344 93.890625 193.777344 C 96.359375 196.3125 98.914062 198.761719 101.570312 201.09375 C 101.757812 201.257812 101.945312 201.417969 102.132812 201.582031 C 102.226562 201.664062 102.320312 201.746094 102.417969 201.828125 C 102.460938 201.863281 102.503906 201.902344 102.546875 201.9375 C 102.609375 201.992188 102.675781 202.050781 102.738281 202.105469 C 102.800781 202.160156 102.863281 202.214844 102.929688 202.269531 C 102.976562 202.308594 103.023438 202.351562 103.074219 202.390625 C 103.1875 202.488281 103.304688 202.585938 103.417969 202.683594 C 103.417969 202.683594 103.421875 202.683594 103.421875 202.6875 C 103.589844 202.824219 103.753906 202.964844 103.917969 203.101562 C 104.085938 203.238281 104.261719 203.363281 104.425781 203.5 C 104.59375 203.636719 104.761719 203.773438 104.9375 203.898438 L 104.941406 203.898438 C 106.511719 205.261719 108.183594 206.484375 109.851562 207.707031 C 111.023438 208.566406 112.226562 209.390625 113.414062 210.230469 L 113.414062 210.234375 C 114.160156 210.757812 114.902344 211.285156 115.679688 211.753906 C 115.683594 211.753906 115.683594 211.753906 115.683594 211.753906 L 115.691406 211.761719 C 116.628906 212.421875 117.609375 213.023438 118.582031 213.628906 C 118.953125 213.859375 119.320312 214.097656 119.695312 214.324219 C 120.070312 214.550781 120.441406 214.777344 120.816406 215 C 121.570312 215.441406 122.324219 215.878906 123.085938 216.292969 C 124.609375 217.128906 126.152344 217.914062 127.730469 218.578125 C 128.519531 218.910156 129.316406 219.207031 130.117188 219.457031 C 130.917969 219.707031 131.726562 219.90625 132.523438 220.011719 C 133.316406 220.121094 134.105469 220.144531 134.8125 220.007812 C 135.519531 219.871094 136.121094 219.578125 136.566406 219.101562 C 137.015625 218.628906 137.304688 217.960938 137.460938 217.210938 C 137.617188 216.457031 137.636719 215.636719 137.585938 214.808594 C 137.53125 213.976562 137.402344 213.132812 137.230469 212.292969 C 137.0625 211.453125 136.839844 210.613281 136.597656 209.777344 C 136.109375 208.109375 135.5 206.457031 134.847656 204.824219 C 134.191406 203.191406 133.476562 201.570312 132.738281 199.957031 L 132.964844 199.832031 C 133.929688 201.328125 134.835938 202.863281 135.667969 204.445312 C 136.5 206.023438 137.261719 207.652344 137.90625 209.335938 C 138.542969 211.027344 139.078125 212.777344 139.316406 214.640625 C 139.429688 215.574219 139.464844 216.539062 139.316406 217.535156 C 139.242188 218.03125 139.117188 218.539062 138.914062 219.03125 C 138.714844 219.523438 138.429688 220.007812 138.066406 220.433594 " fill-opacity="1" fill-rule="nonzero"/></g></g></g></g><g clip-path="url(#7c0f8c8f74)"><g clip-path="url(#f2ae0c9e57)"><g clip-path="url(#85ce0db252)"><path fill="#eacaff" d="M 63.460938 187.457031 C 63.460938 187.460938 63.460938 187.464844 63.460938 187.464844 C 63.457031 187.46875 63.453125 187.46875 63.453125 187.472656 L 63.4375 187.449219 C 63.445312 187.453125 63.453125 187.457031 63.460938 187.457031 " fill-opacity="1" fill-rule="nonzero"/></g></g></g><g clip-path="url(#b922aab16c)"><g clip-path="url(#157d6c09dd)"><g clip-path="url(#d8f4a0bb08)"><path fill="#eacaff" d="M 91.105469 184.445312 L 88.695312 185.015625 L 88.042969 185.171875 C 88.042969 185.171875 86.453125 185.546875 86.441406 185.550781 C 86.074219 185.636719 85.71875 185.785156 85.445312 186.046875 C 85.203125 186.277344 85.054688 186.578125 84.890625 186.867188 C 84.636719 187.308594 84.382812 187.753906 84.128906 188.195312 L 84.128906 188.199219 L 82.699219 190.699219 C 82.503906 191.035156 82.175781 191.074219 81.960938 190.785156 C 81.75 190.496094 81.664062 189.957031 81.777344 189.585938 L 82.667969 186.691406 L 82.671875 186.6875 L 83.273438 184.742188 L 81.078125 182.011719 L 80.917969 181.8125 L 80.917969 181.808594 L 74.664062 174.03125 L 74.480469 174.347656 L 74.476562 174.351562 L 74.449219 174.335938 L 73.28125 176.164062 L 73.273438 176.171875 L 66.617188 187.308594 C 66.480469 187.539062 66.292969 187.664062 66.121094 187.542969 L 66.113281 187.535156 C 66.050781 187.492188 65.980469 187.429688 65.921875 187.351562 L 64.960938 186.054688 C 64.734375 185.753906 64.652344 185.222656 64.78125 184.871094 L 66.007812 181.542969 C 65.921875 181.496094 65.882812 181.40625 65.824219 181.324219 L 65.402344 180.753906 L 65.285156 180.601562 C 65.0625 180.300781 65.042969 179.914062 65.34375 179.691406 L 65.5625 179.527344 C 65.660156 179.457031 65.777344 179.40625 65.902344 179.386719 C 66.164062 179.34375 66.449219 179.417969 66.601562 179.621094 L 66.699219 179.75 L 67.746094 176.84375 C 67.660156 176.796875 67.542969 176.765625 67.484375 176.6875 L 67.261719 176.386719 L 66.960938 175.984375 C 66.738281 175.683594 66.800781 175.242188 67.101562 175.019531 L 67.320312 174.855469 C 67.515625 174.710938 67.808594 174.660156 68.050781 174.726562 C 68.179688 174.761719 68.292969 174.832031 68.371094 174.933594 L 68.453125 175.042969 L 69.648438 171.765625 L 69.699219 171.621094 L 70.539062 169.320312 L 70.660156 169 L 67.476562 165.136719 L 67.449219 165.105469 C 66.730469 164.203125 65.789062 162.09375 65.742188 160.753906 C 65.722656 160.292969 65.8125 159.925781 66.046875 159.726562 C 66.269531 159.542969 66.601562 159.523438 66.988281 159.617188 C 68.234375 159.917969 70.070312 161.371094 70.808594 162.292969 C 70.820312 162.308594 71.878906 163.839844 73.421875 166.074219 C 73.472656 166.148438 73.523438 166.222656 73.574219 166.296875 C 73.652344 166.410156 73.730469 166.523438 73.8125 166.640625 L 74.039062 166.625 L 74.191406 166.617188 L 76.292969 166.480469 L 80.292969 166.214844 L 80.210938 166.109375 C 79.988281 165.808594 80.03125 165.378906 80.332031 165.15625 L 80.550781 164.992188 C 80.851562 164.765625 81.210938 164.898438 81.433594 165.195312 L 81.957031 165.898438 C 82.015625 165.976562 82.109375 166.03125 82.128906 166.125 L 85.304688 165.878906 L 85.210938 165.75 C 84.984375 165.449219 85.011719 165.03125 85.3125 164.804688 L 85.53125 164.644531 C 85.832031 164.417969 86.300781 164.46875 86.523438 164.769531 L 87.0625 165.492188 C 87.125 165.574219 87.160156 165.667969 87.179688 165.757812 L 90.726562 165.53125 C 91.097656 165.503906 91.613281 165.714844 91.835938 166.015625 L 92.800781 167.308594 C 93.027344 167.605469 92.886719 167.949219 92.523438 168.042969 L 80.453125 171.164062 L 78.023438 171.792969 L 77.453125 171.941406 C 77.566406 172.105469 77.683594 172.273438 77.796875 172.4375 C 80.921875 176.972656 84.152344 181.660156 85.269531 183.285156 L 87.207031 183.265625 L 89.402344 183.25 L 90.308594 183.242188 C 90.691406 183.238281 91.183594 183.472656 91.398438 183.757812 C 91.613281 184.046875 91.480469 184.355469 91.105469 184.445312 " fill-opacity="1" fill-rule="nonzero"/></g></g></g><g fill="#d697ff" fill-opacity="1"><g transform="translate(150.290928, 193.933874)"><g><path d="M 13.4375 0.453125 C 13.1875 0.492188 12.953125 0.515625 12.734375 0.515625 C 10.453125 0.515625 8.421875 0.0234375 6.640625 -0.953125 C 4.859375 -1.941406 3.46875 -3.300781 2.46875 -5.03125 C 1.476562 -6.769531 0.984375 -8.75 0.984375 -10.96875 C 0.984375 -13.21875 1.476562 -15.210938 2.46875 -16.953125 C 3.46875 -18.703125 4.859375 -20.0625 6.640625 -21.03125 C 8.421875 -22.007812 10.460938 -22.5 12.765625 -22.5 C 15.066406 -22.5 17.109375 -22.007812 18.890625 -21.03125 C 20.671875 -20.0625 22.054688 -18.707031 23.046875 -16.96875 C 24.046875 -15.238281 24.546875 -13.238281 24.546875 -10.96875 C 24.546875 -9.195312 24.191406 -7.523438 23.484375 -5.953125 C 22.785156 -4.390625 21.773438 -3.054688 20.453125 -1.953125 L 24.546875 0.734375 L 24.546875 1.953125 L 20.515625 5.09375 Z M 12.765625 -5.3125 C 14.109375 -5.3125 15.210938 -5.832031 16.078125 -6.875 C 16.941406 -7.925781 17.375 -9.304688 17.375 -11.015625 C 17.375 -12.140625 17.175781 -13.144531 16.78125 -14.03125 C 16.382812 -14.914062 15.832031 -15.609375 15.125 -16.109375 C 14.425781 -16.609375 13.628906 -16.859375 12.734375 -16.859375 C 11.859375 -16.859375 11.066406 -16.609375 10.359375 -16.109375 C 9.660156 -15.609375 9.117188 -14.914062 8.734375 -14.03125 C 8.347656 -13.144531 8.15625 -12.140625 8.15625 -11.015625 C 8.15625 -9.304688 8.582031 -7.925781 9.4375 -6.875 C 10.289062 -5.832031 11.398438 -5.3125 12.765625 -5.3125 Z M 12.765625 -5.3125 "/></g></g></g><g fill="#d697ff" fill-opacity="1"><g transform="translate(175.820647, 193.933874)"><g><path d="M 6.234375 -22.015625 L 15.96875 -22.015625 L 22.34375 0 L 14.8125 0 L 13.984375 -4.21875 L 8.28125 -4.21875 L 7.359375 0 L 0.15625 0 Z M 13.21875 -8.15625 L 11.140625 -17.796875 L 8.953125 -8.15625 Z M 13.21875 -8.15625 "/></g></g></g><g fill="#d697ff" fill-opacity="1"><g transform="translate(198.183145, 193.933874)"><g><path d="M 2.078125 -22.015625 L 9.46875 -22.015625 L 9.46875 0 L 2.078125 0 Z M 2.078125 -22.015625 "/></g></g></g><g fill="#d697ff" fill-opacity="1"><g transform="translate(209.732304, 193.933874)"><g><path d="M 18.75 0.515625 C 14.738281 0.515625 12.285156 -1.34375 11.390625 -5.0625 L 10.59375 -8.359375 L 9.09375 -8.359375 L 9.09375 0 L 2.078125 0 L 2.078125 -22.015625 L 11.78125 -22.015625 C 13.613281 -22.015625 15.226562 -21.742188 16.625 -21.203125 C 18.019531 -20.660156 19.101562 -19.894531 19.875 -18.90625 C 20.644531 -17.925781 21.03125 -16.796875 21.03125 -15.515625 C 21.03125 -14.085938 20.679688 -12.890625 19.984375 -11.921875 C 19.285156 -10.953125 18.210938 -10.15625 16.765625 -9.53125 C 16.910156 -8.71875 17.082031 -7.984375 17.28125 -7.328125 C 17.53125 -6.515625 17.878906 -5.945312 18.328125 -5.625 C 18.785156 -5.3125 19.4375 -5.15625 20.28125 -5.15625 C 20.582031 -5.15625 21.054688 -5.195312 21.703125 -5.28125 L 21.703125 -0.0625 C 20.691406 0.320312 19.707031 0.515625 18.75 0.515625 Z M 10.296875 -12.828125 C 11.878906 -12.828125 12.992188 -13.003906 13.640625 -13.359375 C 14.296875 -13.710938 14.625 -14.316406 14.625 -15.171875 C 14.625 -15.890625 14.359375 -16.414062 13.828125 -16.75 C 13.296875 -17.082031 12.453125 -17.25 11.296875 -17.25 L 9.09375 -17.25 L 9.09375 -12.828125 Z M 10.296875 -12.828125 "/></g></g></g><g fill="#d697ff" fill-opacity="1"><g transform="translate(232.062815, 193.933874)"><g><path d="M 2.078125 -22.015625 L 8.984375 -22.015625 L 8.984375 -4.859375 L 16.640625 -4.859375 L 16.640625 0 L 2.078125 0 Z M 2.078125 -22.015625 "/></g></g></g><g fill="#d697ff" fill-opacity="1"><g transform="translate(249.274579, 193.933874)"><g><path d="M 2.078125 -22.015625 L 9.46875 -22.015625 L 9.46875 0 L 2.078125 0 Z M 2.078125 -22.015625 "/></g></g></g><g fill="#d697ff" fill-opacity="1"><g transform="translate(260.823739, 193.933874)"><g><path d="M 2.078125 -22.015625 L 8.515625 -22.015625 L 17.28125 -10.140625 L 17.28125 -22.015625 L 23.015625 -22.015625 L 23.015625 0 L 16.609375 0 L 7.78125 -11.453125 L 7.78125 0 L 2.078125 0 Z M 2.078125 -22.015625 "/></g></g></g><g fill="#d697ff" fill-opacity="1"><g transform="translate(285.90557, 193.933874)"><g><path d="M 2.078125 -22.015625 L 17.53125 -22.015625 L 17.53125 -17.15625 L 9.859375 -17.15625 L 9.859375 -13.15625 L 16.859375 -13.15625 L 16.859375 -9.125 L 9.859375 -9.125 L 9.859375 -4.859375 L 17.53125 -4.859375 L 17.53125 0 L 2.078125 0 Z M 2.078125 -22.015625 "/></g></g></g><g fill="#e0b0ff" fill-opacity="1"><g transform="translate(141.9022, 219.483912)"><g><path d="M 12.125 -14 L 7.09375 0 L 5.09375 0 L 0.078125 -14 L 2.078125 -14 L 6.09375 -2.65625 L 10.125 -14 Z M 12.125 -14 "/></g></g></g><g fill="#e0b0ff" fill-opacity="1"><g transform="translate(154.097389, 219.483912)"><g><path d="M 9.265625 -9.796875 L 9.265625 0 L 7.65625 0 L 7.453125 -1.078125 C 7.140625 -0.640625 6.765625 -0.316406 6.328125 -0.109375 C 5.898438 0.0976562 5.367188 0.203125 4.734375 0.203125 C 3.566406 0.203125 2.671875 -0.148438 2.046875 -0.859375 C 1.429688 -1.578125 1.125 -2.65625 1.125 -4.09375 L 1.125 -9.796875 L 2.921875 -9.796875 L 2.921875 -4.59375 C 2.921875 -3.53125 3.101562 -2.734375 3.46875 -2.203125 C 3.832031 -1.671875 4.410156 -1.40625 5.203125 -1.40625 C 5.671875 -1.40625 6.109375 -1.492188 6.515625 -1.671875 C 6.921875 -1.859375 7.234375 -2.132812 7.453125 -2.5 L 7.453125 -9.796875 Z M 9.265625 -9.796875 "/></g></g></g><g fill="#e0b0ff" fill-opacity="1"><g transform="translate(164.573253, 219.483912)"><g><path d="M 1.21875 -14 L 3.015625 -14 L 3.015625 -12 L 1.21875 -12 Z M 1.21875 -9.796875 L 3.015625 -9.796875 L 3.015625 0 L 1.21875 0 Z M 1.21875 -9.796875 "/></g></g></g><g fill="#e0b0ff" fill-opacity="1"><g transform="translate(168.811584, 219.483912)"><g/></g></g><g fill="#e0b0ff" fill-opacity="1"><g transform="translate(173.30981, 219.483912)"><g><path d="M 4.59375 0.203125 C 3.726562 0.203125 3.085938 -0.0195312 2.671875 -0.46875 C 2.253906 -0.925781 2.046875 -1.484375 2.046875 -2.140625 L 2.046875 -8.40625 L 0.359375 -8.40625 L 0.515625 -9.796875 L 2.046875 -9.796875 L 2.046875 -12.21875 L 3.84375 -12.40625 L 3.84375 -9.796875 L 6.421875 -9.796875 L 6.421875 -8.40625 L 3.84375 -8.40625 L 3.84375 -3.234375 C 3.84375 -2.554688 3.878906 -2.085938 3.953125 -1.828125 C 4.035156 -1.578125 4.207031 -1.414062 4.46875 -1.34375 C 4.726562 -1.269531 5.207031 -1.234375 5.90625 -1.234375 L 6.359375 -1.234375 L 6.21875 0.203125 Z M 4.59375 0.203125 "/></g></g></g><g fill="#e0b0ff" fill-opacity="1"><g transform="translate(180.047152, 219.483912)"><g><path d="M 11.59375 -11.28125 C 11.59375 -10.664062 11.375 -10.097656 10.9375 -9.578125 C 10.507812 -9.066406 9.953125 -8.722656 9.265625 -8.546875 L 9.265625 0 L 7.65625 0 L 7.453125 -1.078125 C 7.140625 -0.640625 6.765625 -0.316406 6.328125 -0.109375 C 5.898438 0.0976562 5.367188 0.203125 4.734375 0.203125 C 3.566406 0.203125 2.671875 -0.148438 2.046875 -0.859375 C 1.429688 -1.578125 1.125 -2.65625 1.125 -4.09375 L 1.125 -9.796875 L 2.921875 -9.796875 L 2.921875 -4.59375 C 2.921875 -3.53125 3.101562 -2.734375 3.46875 -2.203125 C 3.832031 -1.671875 4.410156 -1.40625 5.203125 -1.40625 C 5.671875 -1.40625 6.109375 -1.492188 6.515625 -1.671875 C 6.921875 -1.859375 7.234375 -2.132812 7.453125 -2.5 L 7.453125 -9.796875 L 8.28125 -9.796875 C 9.34375 -9.796875 9.875 -10.289062 9.875 -11.28125 Z M 3.359375 -12.984375 L 3.359375 -14.9375 L 7.09375 -12.734375 L 7.09375 -11.515625 Z M 3.359375 -12.984375 "/></g></g></g><g fill="#e0b0ff" fill-opacity="1"><g transform="translate(190.523016, 219.483912)"><g><path d="M 6.0625 -10 C 8.726562 -10 10.0625 -8.46875 10.0625 -5.40625 L 10.0625 0 L 8.265625 0 L 8.265625 -5.40625 C 8.265625 -6.457031 8.066406 -7.21875 7.671875 -7.6875 C 7.273438 -8.164062 6.617188 -8.40625 5.703125 -8.40625 C 5.109375 -8.40625 4.570312 -8.296875 4.09375 -8.078125 C 3.613281 -7.867188 3.253906 -7.550781 3.015625 -7.125 L 3.015625 0 L 1.21875 0 L 1.21875 -9.796875 L 2.625 -9.796875 L 2.8125 -8.765625 C 3.332031 -9.222656 3.859375 -9.539062 4.390625 -9.71875 C 4.921875 -9.90625 5.476562 -10 6.0625 -10 Z M 6.0625 -10 "/></g></g></g><g fill="#e0b0ff" fill-opacity="1"><g transform="translate(201.698605, 219.483912)"><g><path d="M 5.1875 5 C 3.789062 5 2.660156 4.742188 1.796875 4.234375 C 0.941406 3.734375 0.515625 3.015625 0.515625 2.078125 C 0.515625 1.054688 1.082031 0.289062 2.21875 -0.21875 C 1.582031 -0.539062 1.265625 -0.953125 1.265625 -1.453125 C 1.265625 -2.097656 1.648438 -2.570312 2.421875 -2.875 C 1.867188 -3.207031 1.445312 -3.660156 1.15625 -4.234375 C 0.863281 -4.804688 0.71875 -5.457031 0.71875 -6.1875 C 0.71875 -6.90625 0.878906 -7.550781 1.203125 -8.125 C 1.535156 -8.707031 2.003906 -9.164062 2.609375 -9.5 C 3.210938 -9.832031 3.929688 -10 4.765625 -10 C 5.640625 -10 6.4375 -9.742188 7.15625 -9.234375 C 7.863281 -9.640625 8.675781 -9.84375 9.59375 -9.84375 L 9.765625 -9.84375 L 9.546875 -8.640625 L 9.078125 -8.640625 C 8.960938 -8.640625 8.789062 -8.625 8.5625 -8.59375 C 8.332031 -8.570312 8.128906 -8.539062 7.953125 -8.5 C 8.234375 -8.175781 8.445312 -7.8125 8.59375 -7.40625 C 8.738281 -7.007812 8.8125 -6.601562 8.8125 -6.1875 C 8.8125 -5.4375 8.648438 -4.765625 8.328125 -4.171875 C 8.003906 -3.578125 7.535156 -3.109375 6.921875 -2.765625 C 6.304688 -2.429688 5.585938 -2.265625 4.765625 -2.265625 C 4.285156 -2.265625 3.84375 -2.320312 3.4375 -2.4375 C 3.132812 -2.332031 2.984375 -2.160156 2.984375 -1.921875 C 2.984375 -1.597656 3.347656 -1.382812 4.078125 -1.28125 L 6.703125 -0.859375 C 7.796875 -0.679688 8.617188 -0.367188 9.171875 0.078125 C 9.734375 0.535156 10.015625 1.160156 10.015625 1.953125 C 10.015625 2.953125 9.582031 3.707031 8.71875 4.21875 C 7.863281 4.738281 6.6875 5 5.1875 5 Z M 4.765625 -3.703125 C 5.503906 -3.703125 6.078125 -3.925781 6.484375 -4.375 C 6.890625 -4.820312 7.09375 -5.414062 7.09375 -6.15625 C 7.09375 -6.875 6.890625 -7.453125 6.484375 -7.890625 C 6.078125 -8.335938 5.503906 -8.5625 4.765625 -8.5625 C 4.015625 -8.5625 3.4375 -8.335938 3.03125 -7.890625 C 2.632812 -7.453125 2.4375 -6.875 2.4375 -6.15625 C 2.4375 -5.414062 2.632812 -4.820312 3.03125 -4.375 C 3.4375 -3.925781 4.015625 -3.703125 4.765625 -3.703125 Z M 5.34375 3.40625 C 6.257812 3.40625 6.960938 3.285156 7.453125 3.046875 C 7.953125 2.804688 8.203125 2.457031 8.203125 2 C 8.203125 1.65625 8.050781 1.378906 7.75 1.171875 C 7.445312 0.960938 7 0.800781 6.40625 0.6875 L 3.59375 0.203125 C 3.195312 0.390625 2.867188 0.617188 2.609375 0.890625 C 2.359375 1.160156 2.234375 1.460938 2.234375 1.796875 C 2.234375 2.347656 2.503906 2.753906 3.046875 3.015625 C 3.597656 3.273438 4.363281 3.40625 5.34375 3.40625 Z M 5.34375 3.40625 "/></g></g></g><g fill="#e0b0ff" fill-opacity="1"><g transform="translate(211.654679, 219.483912)"><g/></g></g><g fill="#e0b0ff" fill-opacity="1"><g transform="translate(216.152904, 219.483912)"><g><path d="M 5.71875 0.203125 C 4.65625 0.203125 3.738281 -0.015625 2.96875 -0.453125 C 2.195312 -0.898438 1.617188 -1.503906 1.234375 -2.265625 C 0.847656 -3.035156 0.65625 -3.894531 0.65625 -4.84375 C 0.65625 -6.382812 1.09375 -7.628906 1.96875 -8.578125 C 2.84375 -9.523438 4.140625 -10 5.859375 -10 C 6.867188 -10 7.765625 -9.804688 8.546875 -9.421875 L 8.265625 -7.84375 C 7.453125 -8.21875 6.632812 -8.40625 5.8125 -8.40625 C 4.75 -8.40625 3.929688 -8.097656 3.359375 -7.484375 C 2.785156 -6.878906 2.5 -6.023438 2.5 -4.921875 C 2.5 -3.816406 2.773438 -2.945312 3.328125 -2.3125 C 3.878906 -1.6875 4.695312 -1.375 5.78125 -1.375 C 6.644531 -1.375 7.476562 -1.578125 8.28125 -1.984375 L 8.515625 -0.546875 C 8.222656 -0.335938 7.820312 -0.160156 7.3125 -0.015625 C 6.800781 0.128906 6.269531 0.203125 5.71875 0.203125 Z M 5.71875 0.203125 "/></g></g></g><g fill="#e0b0ff" fill-opacity="1"><g transform="translate(225.229327, 219.483912)"><g><path d="M 5.90625 -10 C 7.144531 -10 8.085938 -9.59375 8.734375 -8.78125 C 9.390625 -7.96875 9.71875 -6.859375 9.71875 -5.453125 L 9.71875 0 L 7.921875 0 L 7.921875 -5.234375 C 7.921875 -6.316406 7.722656 -7.113281 7.328125 -7.625 C 6.929688 -8.144531 6.320312 -8.40625 5.5 -8.40625 C 4.988281 -8.40625 4.519531 -8.285156 4.09375 -8.046875 C 3.664062 -7.816406 3.304688 -7.488281 3.015625 -7.0625 L 3.015625 0 L 1.203125 0 L 1.203125 -15 L 3.015625 -15 L 3.015625 -8.859375 C 3.398438 -9.234375 3.820312 -9.515625 4.28125 -9.703125 C 4.75 -9.898438 5.289062 -10 5.90625 -10 Z M 5.90625 -10 "/></g></g></g><g fill="#e0b0ff" fill-opacity="1"><g transform="translate(236.065051, 219.483912)"><g><path d="M 9.265625 -9.796875 L 9.265625 0 L 7.65625 0 L 7.453125 -1.078125 C 7.140625 -0.640625 6.765625 -0.316406 6.328125 -0.109375 C 5.898438 0.0976562 5.367188 0.203125 4.734375 0.203125 C 3.566406 0.203125 2.671875 -0.148438 2.046875 -0.859375 C 1.429688 -1.578125 1.125 -2.65625 1.125 -4.09375 L 1.125 -9.796875 L 2.921875 -9.796875 L 2.921875 -4.59375 C 2.921875 -3.53125 3.101562 -2.734375 3.46875 -2.203125 C 3.832031 -1.671875 4.410156 -1.40625 5.203125 -1.40625 C 5.671875 -1.40625 6.109375 -1.492188 6.515625 -1.671875 C 6.921875 -1.859375 7.234375 -2.132812 7.453125 -2.5 L 7.453125 -9.796875 Z M 9.265625 -9.796875 "/></g></g></g><g fill="#e0b0ff" fill-opacity="1"><g transform="translate(246.540914, 219.483912)"><g><path d="M 4.21875 -0.4375 L 0.140625 -9.796875 L 2.140625 -9.796875 L 5.203125 -2.515625 L 7.953125 -9.796875 L 9.953125 -9.796875 L 3.953125 4.84375 L 1.953125 4.84375 Z M 4.21875 -0.4375 "/></g></g></g><g fill="#e0b0ff" fill-opacity="1"><g transform="translate(256.636926, 219.483912)"><g><path d="M 5.921875 0.203125 C 4.796875 0.203125 3.835938 -0.0234375 3.046875 -0.484375 C 2.253906 -0.953125 1.648438 -1.578125 1.234375 -2.359375 C 0.828125 -3.148438 0.625 -4.023438 0.625 -4.984375 C 0.625 -5.898438 0.8125 -6.738281 1.1875 -7.5 C 1.570312 -8.269531 2.125 -8.878906 2.84375 -9.328125 C 3.570312 -9.773438 4.429688 -10 5.421875 -10 C 6.671875 -10 7.6875 -9.628906 8.46875 -8.890625 C 9.25 -8.160156 9.640625 -7.148438 9.640625 -5.859375 C 9.640625 -5.523438 9.613281 -5.207031 9.5625 -4.90625 L 2.453125 -4.90625 C 2.578125 -3.632812 2.960938 -2.734375 3.609375 -2.203125 C 4.265625 -1.671875 5.109375 -1.40625 6.140625 -1.40625 C 7.171875 -1.40625 8.109375 -1.597656 8.953125 -1.984375 L 9.203125 -0.5625 C 8.066406 -0.0507812 6.972656 0.203125 5.921875 0.203125 Z M 7.78125 -6.140625 C 7.78125 -6.847656 7.578125 -7.398438 7.171875 -7.796875 C 6.773438 -8.203125 6.175781 -8.40625 5.375 -8.40625 C 4.601562 -8.40625 4 -8.210938 3.5625 -7.828125 C 3.125 -7.453125 2.8125 -6.890625 2.625 -6.140625 Z M 8.375 -16.125 L 10.34375 -16.125 L 8.375 -13.78125 L 7.0625 -13.78125 Z M 3.015625 -12.078125 L 5.5625 -13.875 L 8.109375 -12.078125 L 8.109375 -10.859375 L 5.5625 -12.1875 L 3.015625 -10.859375 Z M 3.015625 -12.078125 "/></g></g></g><g fill="#e0b0ff" fill-opacity="1"><g transform="translate(266.872887, 219.483912)"><g><path d="M 6.0625 -10 C 8.726562 -10 10.0625 -8.46875 10.0625 -5.40625 L 10.0625 0 L 8.265625 0 L 8.265625 -5.40625 C 8.265625 -6.457031 8.066406 -7.21875 7.671875 -7.6875 C 7.273438 -8.164062 6.617188 -8.40625 5.703125 -8.40625 C 5.109375 -8.40625 4.570312 -8.296875 4.09375 -8.078125 C 3.613281 -7.867188 3.253906 -7.550781 3.015625 -7.125 L 3.015625 0 L 1.21875 0 L 1.21875 -9.796875 L 2.625 -9.796875 L 2.8125 -8.765625 C 3.332031 -9.222656 3.859375 -9.539062 4.390625 -9.71875 C 4.921875 -9.90625 5.476562 -10 6.0625 -10 Z M 6.0625 -10 "/></g></g></g><g fill="#e0b0ff" fill-opacity="1"><g transform="translate(278.048477, 219.483912)"><g/></g></g><g fill="#e0b0ff" fill-opacity="1"><g transform="translate(282.546703, 219.483912)"><g><path d="M 6.046875 -10 C 6.921875 -10 7.691406 -9.765625 8.359375 -9.296875 C 9.035156 -8.828125 9.550781 -8.203125 9.90625 -7.421875 C 10.269531 -6.648438 10.453125 -5.8125 10.453125 -4.90625 C 10.453125 -3.96875 10.253906 -3.109375 9.859375 -2.328125 C 9.472656 -1.546875 8.941406 -0.925781 8.265625 -0.46875 C 7.597656 -0.0195312 6.859375 0.203125 6.046875 0.203125 C 5.441406 0.203125 4.859375 0.078125 4.296875 -0.171875 C 3.734375 -0.421875 3.300781 -0.765625 3 -1.203125 L 2.796875 0 L 1.203125 0 L 1.203125 -15 L 3 -15 L 3 -8.65625 C 3.363281 -9.070312 3.8125 -9.398438 4.34375 -9.640625 C 4.882812 -9.878906 5.453125 -10 6.046875 -10 Z M 5.8125 -1.40625 C 6.65625 -1.40625 7.332031 -1.738281 7.84375 -2.40625 C 8.363281 -3.082031 8.625 -3.914062 8.625 -4.90625 C 8.625 -5.914062 8.363281 -6.75 7.84375 -7.40625 C 7.332031 -8.070312 6.65625 -8.40625 5.8125 -8.40625 C 4.988281 -8.40625 4.296875 -8.097656 3.734375 -7.484375 C 3.179688 -6.878906 2.90625 -6.019531 2.90625 -4.90625 C 2.90625 -3.738281 3.179688 -2.863281 3.734375 -2.28125 C 4.285156 -1.695312 4.976562 -1.40625 5.8125 -1.40625 Z M 5.8125 -1.40625 "/></g></g></g><g fill="#e0b0ff" fill-opacity="1"><g transform="translate(293.642321, 219.483912)"><g><path d="M 3.5 0.203125 C 2.59375 0.203125 1.863281 -0.0625 1.3125 -0.59375 C 0.757812 -1.132812 0.484375 -1.816406 0.484375 -2.640625 C 0.484375 -3.878906 1.066406 -4.765625 2.234375 -5.296875 C 3.410156 -5.828125 4.78125 -6.109375 6.34375 -6.140625 C 6.34375 -7.015625 6.171875 -7.609375 5.828125 -7.921875 C 5.484375 -8.242188 4.941406 -8.40625 4.203125 -8.40625 C 3.785156 -8.40625 3.367188 -8.335938 2.953125 -8.203125 C 2.546875 -8.078125 2.101562 -7.847656 1.625 -7.515625 L 1.359375 -8.984375 C 1.753906 -9.285156 2.242188 -9.53125 2.828125 -9.71875 C 3.421875 -9.90625 4.039062 -10 4.6875 -10 C 5.519531 -10 6.1875 -9.851562 6.6875 -9.5625 C 7.1875 -9.269531 7.550781 -8.78125 7.78125 -8.09375 C 8.019531 -7.414062 8.140625 -6.484375 8.140625 -5.296875 L 8.140625 -3.296875 C 8.140625 -2.765625 8.160156 -2.363281 8.203125 -2.09375 C 8.253906 -1.820312 8.359375 -1.609375 8.515625 -1.453125 C 8.679688 -1.304688 8.929688 -1.234375 9.265625 -1.234375 L 9.4375 -1.234375 L 9.15625 0.203125 L 9.015625 0.203125 C 8.460938 0.203125 8.023438 0.144531 7.703125 0.03125 C 7.378906 -0.0703125 7.132812 -0.222656 6.96875 -0.421875 C 6.800781 -0.617188 6.644531 -0.890625 6.5 -1.234375 C 5.675781 -0.273438 4.675781 0.203125 3.5 0.203125 Z M 3.84375 -1.234375 C 4.320312 -1.234375 4.785156 -1.351562 5.234375 -1.59375 C 5.679688 -1.832031 6.050781 -2.15625 6.34375 -2.5625 L 6.34375 -4.90625 C 4.90625 -4.84375 3.875 -4.648438 3.25 -4.328125 C 2.625 -4.003906 2.3125 -3.472656 2.3125 -2.734375 C 2.3125 -2.234375 2.445312 -1.859375 2.71875 -1.609375 C 3 -1.359375 3.375 -1.234375 3.84375 -1.234375 Z M 3.84375 -1.234375 "/></g></g></g><g fill="#e0b0ff" fill-opacity="1"><g transform="translate(303.238535, 219.483912)"><g><path d="M 4.21875 -0.4375 L 0.140625 -9.796875 L 2.140625 -9.796875 L 5.203125 -2.515625 L 7.953125 -9.796875 L 9.953125 -9.796875 L 3.953125 4.84375 L 1.953125 4.84375 Z M 4.21875 -0.4375 "/></g></g></g></svg>