<svg xmlns="http://www.w3.org/2000/svg" xmlns:xlink="http://www.w3.org/1999/xlink" width="500" zoomAndPan="magnify" viewBox="0 0 375 374.999991" height="500" preserveAspectRatio="xMidYMid meet" version="1.0"><defs><g/><clipPath id="9bb6abfc8d"><path d="M 64.390625 150.765625 L 134.871094 150.765625 L 134.871094 224.277344 L 64.390625 224.277344 Z M 64.390625 150.765625 " clip-rule="nonzero"/></clipPath><clipPath id="63fcdeebeb"><path d="M 99.632812 150.765625 C 80.167969 150.765625 64.390625 167.210938 64.390625 187.5 C 64.390625 207.789062 80.167969 224.234375 99.632812 224.234375 C 119.09375 224.234375 134.871094 207.789062 134.871094 187.5 C 134.871094 167.210938 119.09375 150.765625 99.632812 150.765625 Z M 99.632812 150.765625 " clip-rule="nonzero"/></clipPath><clipPath id="682dd3849a"><path d="M 85 189 L 86 189 L 86 190 L 85 190 Z M 85 189 " clip-rule="nonzero"/></clipPath><clipPath id="330a7508c7"><path d="M 66.664062 157.363281 L 149.921875 185.082031 L 136.890625 224.21875 L 53.636719 196.503906 Z M 66.664062 157.363281 " clip-rule="nonzero"/></clipPath><clipPath id="305ec41071"><path d="M 150.199219 185.175781 L 66.941406 157.457031 L 53.914062 196.59375 L 137.171875 224.3125 Z M 150.199219 185.175781 " clip-rule="nonzero"/></clipPath><clipPath id="31e313d9b1"><path d="M 106 202 L 107 202 L 107 203 L 106 203 Z M 106 202 " clip-rule="nonzero"/></clipPath><clipPath id="8409b38414"><path d="M 66.664062 157.363281 L 149.921875 185.082031 L 136.890625 224.21875 L 53.636719 196.503906 Z M 66.664062 157.363281 " clip-rule="nonzero"/></clipPath><clipPath id="bf35e161fb"><path d="M 150.199219 185.175781 L 66.941406 157.457031 L 53.914062 196.59375 L 137.171875 224.3125 Z M 150.199219 185.175781 " clip-rule="nonzero"/></clipPath><clipPath id="acca3355c9"><path d="M 117 210 L 118 210 L 118 211 L 117 211 Z M 117 210 " clip-rule="nonzero"/></clipPath><clipPath id="6fb0472442"><path d="M 66.664062 157.363281 L 149.921875 185.082031 L 136.890625 224.21875 L 53.636719 196.503906 Z M 66.664062 157.363281 " clip-rule="nonzero"/></clipPath><clipPath id="58263406e4"><path d="M 150.199219 185.175781 L 66.941406 157.457031 L 53.914062 196.59375 L 137.171875 224.3125 Z M 150.199219 185.175781 " clip-rule="nonzero"/></clipPath><clipPath id="5be231c8f6"><path d="M 86 187 L 140 187 L 140 223 L 86 223 Z M 86 187 " clip-rule="nonzero"/></clipPath><clipPath id="ad80ba4545"><path d="M 66.664062 157.363281 L 149.921875 185.082031 L 136.890625 224.21875 L 53.636719 196.503906 Z M 66.664062 157.363281 " clip-rule="nonzero"/></clipPath><clipPath id="cb397e7d85"><path d="M 150.199219 185.175781 L 66.941406 157.457031 L 53.914062 196.59375 L 137.171875 224.3125 Z M 150.199219 185.175781 " clip-rule="nonzero"/></clipPath><clipPath id="77eee92656"><path d="M 144.09375 203.511719 L 87.855469 184.789062 L 80.964844 205.484375 L 137.207031 224.207031 Z M 144.09375 203.511719 " clip-rule="nonzero"/></clipPath><clipPath id="99870bf3ec"><path d="M 63 187 L 64 187 L 64 188 L 63 188 Z M 63 187 " clip-rule="nonzero"/></clipPath><clipPath id="5ca6ffec36"><path d="M 66.664062 157.363281 L 149.921875 185.082031 L 136.890625 224.21875 L 53.636719 196.503906 Z M 66.664062 157.363281 " clip-rule="nonzero"/></clipPath><clipPath id="1522705029"><path d="M 150.199219 185.175781 L 66.941406 157.457031 L 53.914062 196.59375 L 137.171875 224.3125 Z M 150.199219 185.175781 " clip-rule="nonzero"/></clipPath><clipPath id="fbca43629a"><path d="M 64 159 L 93 159 L 93 191 L 64 191 Z M 64 159 " clip-rule="nonzero"/></clipPath><clipPath id="4aa27b95cd"><path d="M 66.664062 157.363281 L 149.921875 185.082031 L 136.890625 224.21875 L 53.636719 196.503906 Z M 66.664062 157.363281 " clip-rule="nonzero"/></clipPath><clipPath id="6f615d96b0"><path d="M 150.199219 185.175781 L 66.941406 157.457031 L 53.914062 196.59375 L 137.171875 224.3125 Z M 150.199219 185.175781 " clip-rule="nonzero"/></clipPath></defs><g clip-path="url(#9bb6abfc8d)"><g clip-path="url(#63fcdeebeb)"><path fill="#d697ff" d="M 64.390625 150.765625 L 134.871094 150.765625 L 134.871094 224.277344 L 64.390625 224.277344 Z M 64.390625 150.765625 " fill-opacity="1" fill-rule="nonzero"/></g></g><g clip-path="url(#682dd3849a)"><g clip-path="url(#330a7508c7)"><g clip-path="url(#305ec41071)"><path fill="#eacaff" d="M 85.675781 189.757812 L 85.683594 189.75 L 85.683594 189.753906 Z M 85.675781 189.757812 " fill-opacity="1" fill-rule="nonzero"/></g></g></g><g clip-path="url(#31e313d9b1)"><g clip-path="url(#8409b38414)"><g clip-path="url(#bf35e161fb)"><path fill="#eacaff" d="M 106.394531 202.464844 C 106.398438 202.457031 106.402344 202.453125 106.410156 202.445312 C 106.40625 202.453125 106.398438 202.457031 106.394531 202.464844 " fill-opacity="1" fill-rule="nonzero"/></g></g></g><g clip-path="url(#acca3355c9)"><g clip-path="url(#6fb0472442)"><g clip-path="url(#58263406e4)"><path fill="#eacaff" d="M 117.367188 210.40625 C 117.367188 210.40625 117.363281 210.410156 117.363281 210.410156 L 117.367188 210.40625 " fill-opacity="1" fill-rule="nonzero"/></g></g></g><g clip-path="url(#5be231c8f6)"><g clip-path="url(#ad80ba4545)"><g clip-path="url(#cb397e7d85)"><g clip-path="url(#77eee92656)"><path fill="#eacaff" d="M 138.066406 220.433594 C 137.699219 220.859375 137.253906 221.222656 136.769531 221.492188 C 136.285156 221.765625 135.769531 221.949219 135.253906 222.066406 C 134.222656 222.300781 133.214844 222.289062 132.253906 222.1875 C 131.292969 222.078125 130.371094 221.867188 129.472656 221.613281 C 128.578125 221.355469 127.710938 221.039062 126.859375 220.699219 C 125.160156 220.011719 123.535156 219.199219 121.960938 218.308594 C 121.175781 217.863281 120.402344 217.402344 119.644531 216.921875 C 118.882812 216.441406 118.132812 215.945312 117.394531 215.4375 C 116.242188 214.640625 115.117188 213.816406 114.007812 212.964844 C 113.292969 212.414062 112.585938 211.851562 111.882812 211.285156 C 110.894531 210.480469 109.917969 209.664062 108.953125 208.835938 C 107.34375 207.449219 105.753906 206.039062 104.183594 204.613281 C 103.546875 204.035156 102.910156 203.453125 102.277344 202.871094 C 101.855469 202.484375 101.4375 202.097656 101.015625 201.710938 C 98.410156 199.296875 95.832031 196.859375 93.28125 194.386719 C 91.582031 192.734375 89.871094 191.0625 88.191406 189.382812 C 87.886719 189.074219 87.382812 188.566406 87.050781 188.230469 C 86.828125 188.003906 86.898438 187.613281 87.195312 187.5 C 87.214844 187.496094 87.230469 187.488281 87.246094 187.484375 C 87.675781 187.386719 88.125 187.53125 88.421875 187.859375 C 88.59375 188.050781 88.777344 188.257812 88.90625 188.40625 C 90.527344 190.234375 92.183594 192.027344 93.890625 193.777344 C 96.359375 196.3125 98.914062 198.761719 101.570312 201.09375 C 101.757812 201.257812 101.945312 201.417969 102.132812 201.582031 C 102.226562 201.664062 102.320312 201.746094 102.417969 201.828125 C 102.460938 201.863281 102.503906 201.902344 102.546875 201.9375 C 102.609375 201.992188 102.675781 202.050781 102.738281 202.105469 C 102.800781 202.160156 102.863281 202.214844 102.929688 202.269531 C 102.976562 202.308594 103.023438 202.351562 103.074219 202.390625 C 103.1875 202.488281 103.304688 202.585938 103.417969 202.683594 C 103.417969 202.683594 103.421875 202.683594 103.421875 202.6875 C 103.589844 202.824219 103.753906 202.964844 103.917969 203.101562 C 104.085938 203.238281 104.261719 203.363281 104.425781 203.5 C 104.59375 203.636719 104.761719 203.773438 104.9375 203.898438 L 104.941406 203.898438 C 106.511719 205.261719 108.183594 206.484375 109.851562 207.707031 C 111.023438 208.566406 112.226562 209.390625 113.414062 210.230469 L 113.414062 210.234375 C 114.160156 210.757812 114.902344 211.285156 115.679688 211.753906 C 115.683594 211.753906 115.683594 211.753906 115.683594 211.753906 L 115.691406 211.761719 C 116.628906 212.421875 117.609375 213.023438 118.582031 213.628906 C 118.953125 213.859375 119.320312 214.097656 119.695312 214.324219 C 120.070312 214.550781 120.441406 214.777344 120.816406 215 C 121.570312 215.441406 122.324219 215.878906 123.085938 216.292969 C 124.609375 217.128906 126.152344 217.914062 127.730469 218.578125 C 128.519531 218.910156 129.316406 219.207031 130.117188 219.457031 C 130.917969 219.707031 131.726562 219.90625 132.523438 220.011719 C 133.316406 220.121094 134.105469 220.144531 134.8125 220.007812 C 135.519531 219.871094 136.121094 219.578125 136.566406 219.101562 C 137.015625 218.628906 137.304688 217.960938 137.460938 217.210938 C 137.617188 216.457031 137.636719 215.636719 137.585938 214.808594 C 137.53125 213.976562 137.402344 213.132812 137.230469 212.292969 C 137.0625 211.453125 136.839844 210.613281 136.597656 209.777344 C 136.109375 208.109375 135.5 206.457031 134.847656 204.824219 C 134.191406 203.191406 133.476562 201.570312 132.738281 199.957031 L 132.964844 199.832031 C 133.929688 201.328125 134.835938 202.863281 135.667969 204.445312 C 136.5 206.023438 137.261719 207.652344 137.90625 209.335938 C 138.542969 211.027344 139.078125 212.777344 139.316406 214.640625 C 139.429688 215.574219 139.464844 216.539062 139.316406 217.535156 C 139.242188 218.03125 139.117188 218.539062 138.914062 219.03125 C 138.714844 219.523438 138.429688 220.007812 138.066406 220.433594 " fill-opacity="1" fill-rule="nonzero"/></g></g></g></g><g clip-path="url(#99870bf3ec)"><g clip-path="url(#5ca6ffec36)"><g clip-path="url(#1522705029)"><path fill="#eacaff" d="M 63.460938 187.457031 C 63.460938 187.460938 63.460938 187.464844 63.460938 187.464844 C 63.457031 187.46875 63.453125 187.46875 63.453125 187.472656 L 63.4375 187.449219 C 63.445312 187.453125 63.453125 187.457031 63.460938 187.457031 " fill-opacity="1" fill-rule="nonzero"/></g></g></g><g clip-path="url(#fbca43629a)"><g clip-path="url(#4aa27b95cd)"><g clip-path="url(#6f615d96b0)"><path fill="#eacaff" d="M 91.105469 184.445312 L 88.695312 185.015625 L 88.042969 185.171875 C 88.042969 185.171875 86.453125 185.546875 86.441406 185.550781 C 86.074219 185.636719 85.71875 185.785156 85.445312 186.046875 C 85.203125 186.277344 85.054688 186.578125 84.890625 186.867188 C 84.636719 187.308594 84.382812 187.753906 84.128906 188.195312 L 84.128906 188.199219 L 82.699219 190.699219 C 82.503906 191.035156 82.175781 191.074219 81.960938 190.785156 C 81.75 190.496094 81.664062 189.957031 81.777344 189.585938 L 82.667969 186.691406 L 82.671875 186.6875 L 83.273438 184.742188 L 81.078125 182.011719 L 80.917969 181.8125 L 80.917969 181.808594 L 74.664062 174.03125 L 74.480469 174.347656 L 74.476562 174.351562 L 74.449219 174.335938 L 73.28125 176.164062 L 73.273438 176.171875 L 66.617188 187.308594 C 66.480469 187.539062 66.292969 187.664062 66.121094 187.542969 L 66.113281 187.535156 C 66.050781 187.492188 65.980469 187.429688 65.921875 187.351562 L 64.960938 186.054688 C 64.734375 185.753906 64.652344 185.222656 64.78125 184.871094 L 66.007812 181.542969 C 65.921875 181.496094 65.882812 181.40625 65.824219 181.324219 L 65.402344 180.753906 L 65.285156 180.601562 C 65.0625 180.300781 65.042969 179.914062 65.34375 179.691406 L 65.5625 179.527344 C 65.660156 179.457031 65.777344 179.40625 65.902344 179.386719 C 66.164062 179.34375 66.449219 179.417969 66.601562 179.621094 L 66.699219 179.75 L 67.746094 176.84375 C 67.660156 176.796875 67.542969 176.765625 67.484375 176.6875 L 67.261719 176.386719 L 66.960938 175.984375 C 66.738281 175.683594 66.800781 175.242188 67.101562 175.019531 L 67.320312 174.855469 C 67.515625 174.710938 67.808594 174.660156 68.050781 174.726562 C 68.179688 174.761719 68.292969 174.832031 68.371094 174.933594 L 68.453125 175.042969 L 69.648438 171.765625 L 69.699219 171.621094 L 70.539062 169.320312 L 70.660156 169 L 67.476562 165.136719 L 67.449219 165.105469 C 66.730469 164.203125 65.789062 162.09375 65.742188 160.753906 C 65.722656 160.292969 65.8125 159.925781 66.046875 159.726562 C 66.269531 159.542969 66.601562 159.523438 66.988281 159.617188 C 68.234375 159.917969 70.070312 161.371094 70.808594 162.292969 C 70.820312 162.308594 71.878906 163.839844 73.421875 166.074219 C 73.472656 166.148438 73.523438 166.222656 73.574219 166.296875 C 73.652344 166.410156 73.730469 166.523438 73.8125 166.640625 L 74.039062 166.625 L 74.191406 166.617188 L 76.292969 166.480469 L 80.292969 166.214844 L 80.210938 166.109375 C 79.988281 165.808594 80.03125 165.378906 80.332031 165.15625 L 80.550781 164.992188 C 80.851562 164.765625 81.210938 164.898438 81.433594 165.195312 L 81.957031 165.898438 C 82.015625 165.976562 82.109375 166.03125 82.128906 166.125 L 85.304688 165.878906 L 85.210938 165.75 C 84.984375 165.449219 85.011719 165.03125 85.3125 164.804688 L 85.53125 164.644531 C 85.832031 164.417969 86.300781 164.46875 86.523438 164.769531 L 87.0625 165.492188 C 87.125 165.574219 87.160156 165.667969 87.179688 165.757812 L 90.726562 165.53125 C 91.097656 165.503906 91.613281 165.714844 91.835938 166.015625 L 92.800781 167.308594 C 93.027344 167.605469 92.886719 167.949219 92.523438 168.042969 L 80.453125 171.164062 L 78.023438 171.792969 L 77.453125 171.941406 C 77.566406 172.105469 77.683594 172.273438 77.796875 172.4375 C 80.921875 176.972656 84.152344 181.660156 85.269531 183.285156 L 87.207031 183.265625 L 89.402344 183.25 L 90.308594 183.242188 C 90.691406 183.238281 91.183594 183.472656 91.398438 183.757812 C 91.613281 184.046875 91.480469 184.355469 91.105469 184.445312 " fill-opacity="1" fill-rule="nonzero"/></g></g></g><g fill="#d697ff" fill-opacity="1"><g transform="translate(143.712315, 199.874987)"><g><path d="M 13.4375 0.453125 C 13.1875 0.492188 12.953125 0.515625 12.734375 0.515625 C 10.453125 0.515625 8.421875 0.0234375 6.640625 -0.953125 C 4.859375 -1.941406 3.46875 -3.300781 2.46875 -5.03125 C 1.476562 -6.769531 0.984375 -8.75 0.984375 -10.96875 C 0.984375 -13.21875 1.476562 -15.210938 2.46875 -16.953125 C 3.46875 -18.703125 4.859375 -20.0625 6.640625 -21.03125 C 8.421875 -22.007812 10.460938 -22.5 12.765625 -22.5 C 15.066406 -22.5 17.109375 -22.007812 18.890625 -21.03125 C 20.671875 -20.0625 22.054688 -18.707031 23.046875 -16.96875 C 24.046875 -15.238281 24.546875 -13.238281 24.546875 -10.96875 C 24.546875 -9.195312 24.191406 -7.523438 23.484375 -5.953125 C 22.785156 -4.390625 21.773438 -3.054688 20.453125 -1.953125 L 24.546875 0.734375 L 24.546875 1.953125 L 20.515625 5.09375 Z M 12.765625 -5.3125 C 14.109375 -5.3125 15.210938 -5.832031 16.078125 -6.875 C 16.941406 -7.925781 17.375 -9.304688 17.375 -11.015625 C 17.375 -12.140625 17.175781 -13.144531 16.78125 -14.03125 C 16.382812 -14.914062 15.832031 -15.609375 15.125 -16.109375 C 14.425781 -16.609375 13.628906 -16.859375 12.734375 -16.859375 C 11.859375 -16.859375 11.066406 -16.609375 10.359375 -16.109375 C 9.660156 -15.609375 9.117188 -14.914062 8.734375 -14.03125 C 8.347656 -13.144531 8.15625 -12.140625 8.15625 -11.015625 C 8.15625 -9.304688 8.582031 -7.925781 9.4375 -6.875 C 10.289062 -5.832031 11.398438 -5.3125 12.765625 -5.3125 Z M 12.765625 -5.3125 "/></g></g></g><g fill="#d697ff" fill-opacity="1"><g transform="translate(169.242034, 199.874987)"><g><path d="M 6.234375 -22.015625 L 15.96875 -22.015625 L 22.34375 0 L 14.8125 0 L 13.984375 -4.21875 L 8.28125 -4.21875 L 7.359375 0 L 0.15625 0 Z M 13.21875 -8.15625 L 11.140625 -17.796875 L 8.953125 -8.15625 Z M 13.21875 -8.15625 "/></g></g></g><g fill="#d697ff" fill-opacity="1"><g transform="translate(191.604532, 199.874987)"><g><path d="M 2.078125 -22.015625 L 9.46875 -22.015625 L 9.46875 0 L 2.078125 0 Z M 2.078125 -22.015625 "/></g></g></g><g fill="#d697ff" fill-opacity="1"><g transform="translate(203.153691, 199.874987)"><g><path d="M 18.75 0.515625 C 14.738281 0.515625 12.285156 -1.34375 11.390625 -5.0625 L 10.59375 -8.359375 L 9.09375 -8.359375 L 9.09375 0 L 2.078125 0 L 2.078125 -22.015625 L 11.78125 -22.015625 C 13.613281 -22.015625 15.226562 -21.742188 16.625 -21.203125 C 18.019531 -20.660156 19.101562 -19.894531 19.875 -18.90625 C 20.644531 -17.925781 21.03125 -16.796875 21.03125 -15.515625 C 21.03125 -14.085938 20.679688 -12.890625 19.984375 -11.921875 C 19.285156 -10.953125 18.210938 -10.15625 16.765625 -9.53125 C 16.910156 -8.71875 17.082031 -7.984375 17.28125 -7.328125 C 17.53125 -6.515625 17.878906 -5.945312 18.328125 -5.625 C 18.785156 -5.3125 19.4375 -5.15625 20.28125 -5.15625 C 20.582031 -5.15625 21.054688 -5.195312 21.703125 -5.28125 L 21.703125 -0.0625 C 20.691406 0.320312 19.707031 0.515625 18.75 0.515625 Z M 10.296875 -12.828125 C 11.878906 -12.828125 12.992188 -13.003906 13.640625 -13.359375 C 14.296875 -13.710938 14.625 -14.316406 14.625 -15.171875 C 14.625 -15.890625 14.359375 -16.414062 13.828125 -16.75 C 13.296875 -17.082031 12.453125 -17.25 11.296875 -17.25 L 9.09375 -17.25 L 9.09375 -12.828125 Z M 10.296875 -12.828125 "/></g></g></g><g fill="#d697ff" fill-opacity="1"><g transform="translate(225.484202, 199.874987)"><g><path d="M 2.078125 -22.015625 L 8.984375 -22.015625 L 8.984375 -4.859375 L 16.640625 -4.859375 L 16.640625 0 L 2.078125 0 Z M 2.078125 -22.015625 "/></g></g></g><g fill="#d697ff" fill-opacity="1"><g transform="translate(242.695966, 199.874987)"><g><path d="M 2.078125 -22.015625 L 9.46875 -22.015625 L 9.46875 0 L 2.078125 0 Z M 2.078125 -22.015625 "/></g></g></g><g fill="#d697ff" fill-opacity="1"><g transform="translate(254.245125, 199.874987)"><g><path d="M 2.078125 -22.015625 L 8.515625 -22.015625 L 17.28125 -10.140625 L 17.28125 -22.015625 L 23.015625 -22.015625 L 23.015625 0 L 16.609375 0 L 7.78125 -11.453125 L 7.78125 0 L 2.078125 0 Z M 2.078125 -22.015625 "/></g></g></g><g fill="#d697ff" fill-opacity="1"><g transform="translate(279.326957, 199.874987)"><g><path d="M 2.078125 -22.015625 L 17.53125 -22.015625 L 17.53125 -17.15625 L 9.859375 -17.15625 L 9.859375 -13.15625 L 16.859375 -13.15625 L 16.859375 -9.125 L 9.859375 -9.125 L 9.859375 -4.859375 L 17.53125 -4.859375 L 17.53125 0 L 2.078125 0 Z M 2.078125 -22.015625 "/></g></g></g></svg>