<svg xmlns="http://www.w3.org/2000/svg" xmlns:xlink="http://www.w3.org/1999/xlink" width="200" zoomAndPan="magnify" viewBox="0 0 150 52.499999" height="70" preserveAspectRatio="xMidYMid meet" version="1.0"><defs><g/><clipPath id="244ac3532b"><path d="M 2.359375 5.664062 L 41.382812 5.664062 L 41.382812 46.363281 L 2.359375 46.363281 Z M 2.359375 5.664062 " clip-rule="nonzero"/></clipPath><clipPath id="fa11db4bfb"><path d="M 21.871094 5.664062 C 11.09375 5.664062 2.359375 14.769531 2.359375 26.003906 C 2.359375 37.234375 11.09375 46.34375 21.871094 46.34375 C 32.648438 46.34375 41.382812 37.234375 41.382812 26.003906 C 41.382812 14.769531 32.648438 5.664062 21.871094 5.664062 Z M 21.871094 5.664062 " clip-rule="nonzero"/></clipPath><clipPath id="f03a01b187"><path d="M 25 34 L 26 34 L 26 35 L 25 35 Z M 25 34 " clip-rule="nonzero"/></clipPath><clipPath id="1b2f631c15"><path d="M 3.617188 9.316406 L 50.140625 24.804688 L 42.867188 46.65625 L -3.65625 31.167969 Z M 3.617188 9.316406 " clip-rule="nonzero"/></clipPath><clipPath id="afc9f1162c"><path d="M 49.875 24.714844 L 3.355469 9.226562 L -3.921875 31.078125 L 42.601562 46.566406 Z M 49.875 24.714844 " clip-rule="nonzero"/></clipPath><clipPath id="e352f22800"><path d="M 14 25 L 44 25 L 44 46 L 14 46 Z M 14 25 " clip-rule="nonzero"/></clipPath><clipPath id="5fab1d45c8"><path d="M 3.617188 9.316406 L 50.140625 24.804688 L 42.867188 46.65625 L -3.65625 31.167969 Z M 3.617188 9.316406 " clip-rule="nonzero"/></clipPath><clipPath id="522097cd3c"><path d="M 49.875 24.714844 L 3.355469 9.226562 L -3.921875 31.078125 L 42.601562 46.566406 Z M 49.875 24.714844 " clip-rule="nonzero"/></clipPath><clipPath id="bbcc8770ea"><path d="M 46.496094 34.867188 L 15.351562 24.5 L 11.539062 35.960938 L 42.679688 46.328125 Z M 46.496094 34.867188 " clip-rule="nonzero"/></clipPath><clipPath id="cf641abc25"><path d="M 1 25 L 2 25 L 2 26 L 1 26 Z M 1 25 " clip-rule="nonzero"/></clipPath><clipPath id="aced739d97"><path d="M 3.617188 9.316406 L 50.140625 24.804688 L 42.867188 46.65625 L -3.65625 31.167969 Z M 3.617188 9.316406 " clip-rule="nonzero"/></clipPath><clipPath id="a76ea62199"><path d="M 49.875 24.714844 L 3.355469 9.226562 L -3.921875 31.078125 L 42.601562 46.566406 Z M 49.875 24.714844 " clip-rule="nonzero"/></clipPath><clipPath id="1c2386cced"><path d="M 2 10 L 19 10 L 19 28 L 2 28 Z M 2 10 " clip-rule="nonzero"/></clipPath><clipPath id="e639b536a0"><path d="M 3.617188 9.316406 L 50.140625 24.804688 L 42.867188 46.65625 L -3.65625 31.167969 Z M 3.617188 9.316406 " clip-rule="nonzero"/></clipPath><clipPath id="6f18c0032d"><path d="M 49.875 24.714844 L 3.355469 9.226562 L -3.921875 31.078125 L 42.601562 46.566406 Z M 49.875 24.714844 " clip-rule="nonzero"/></clipPath></defs><g clip-path="url(#244ac3532b)"><g clip-path="url(#fa11db4bfb)"><path fill="#d697ff" d="M 2.359375 5.664062 L 41.382812 5.664062 L 41.382812 46.363281 L 2.359375 46.363281 Z M 2.359375 5.664062 " fill-opacity="1" fill-rule="nonzero"/></g></g><g clip-path="url(#f03a01b187)"><g clip-path="url(#1b2f631c15)"><g clip-path="url(#afc9f1162c)"><path fill="#eacaff" d="M 25.621094 34.289062 L 25.617188 34.289062 C 25.621094 34.285156 25.625 34.28125 25.628906 34.277344 C 25.625 34.28125 25.621094 34.285156 25.621094 34.289062 " fill-opacity="1" fill-rule="nonzero"/></g></g></g><g clip-path="url(#e352f22800)"><g clip-path="url(#5fab1d45c8)"><g clip-path="url(#522097cd3c)"><g clip-path="url(#bbcc8770ea)"><path fill="#eacaff" d="M 43.15625 44.238281 C 42.957031 44.472656 42.707031 44.675781 42.441406 44.824219 C 42.171875 44.976562 41.886719 45.078125 41.601562 45.144531 C 41.03125 45.273438 40.472656 45.265625 39.941406 45.207031 C 39.40625 45.148438 38.894531 45.035156 38.398438 44.890625 C 37.902344 44.75 37.421875 44.574219 36.953125 44.386719 C 36.011719 44.003906 35.109375 43.554688 34.238281 43.0625 C 33.804688 42.816406 33.378906 42.558594 32.957031 42.292969 C 32.535156 42.027344 32.121094 41.753906 31.710938 41.472656 C 31.074219 41.03125 30.449219 40.574219 29.835938 40.101562 C 29.4375 39.796875 29.046875 39.488281 28.660156 39.171875 C 28.113281 38.726562 27.570312 38.273438 27.035156 37.816406 C 26.144531 37.050781 25.265625 36.265625 24.394531 35.476562 C 24.042969 35.15625 23.691406 34.835938 23.339844 34.511719 C 23.105469 34.300781 22.875 34.085938 22.640625 33.871094 C 21.199219 32.535156 19.769531 31.183594 18.359375 29.816406 C 17.417969 28.898438 16.46875 27.972656 15.539062 27.042969 C 15.371094 26.875 15.09375 26.59375 14.90625 26.40625 C 14.785156 26.28125 14.824219 26.066406 14.988281 26.003906 C 14.996094 26 15.007812 25.996094 15.015625 25.992188 C 15.253906 25.9375 15.503906 26.019531 15.667969 26.199219 C 15.761719 26.308594 15.863281 26.421875 15.9375 26.503906 C 16.832031 27.515625 17.75 28.507812 18.695312 29.476562 C 20.0625 30.878906 21.476562 32.238281 22.949219 33.527344 C 23.050781 33.621094 23.15625 33.710938 23.257812 33.800781 C 23.3125 33.84375 23.363281 33.890625 23.417969 33.9375 C 23.441406 33.957031 23.464844 33.976562 23.488281 33.996094 C 23.523438 34.027344 23.558594 34.058594 23.59375 34.089844 C 23.628906 34.117188 23.664062 34.148438 23.699219 34.179688 C 23.726562 34.203125 23.753906 34.226562 23.78125 34.246094 C 23.84375 34.300781 23.90625 34.355469 23.972656 34.410156 C 24.066406 34.488281 24.15625 34.5625 24.25 34.640625 C 24.339844 34.71875 24.4375 34.785156 24.53125 34.863281 C 24.621094 34.9375 24.714844 35.011719 24.8125 35.082031 L 24.816406 35.082031 C 25.683594 35.835938 26.609375 36.511719 27.535156 37.191406 C 28.183594 37.667969 28.847656 38.125 29.503906 38.589844 L 29.507812 38.589844 C 29.917969 38.882812 30.328125 39.171875 30.761719 39.433594 L 30.769531 39.4375 C 31.285156 39.804688 31.828125 40.136719 32.367188 40.472656 C 32.574219 40.597656 32.777344 40.730469 32.984375 40.855469 C 33.191406 40.980469 33.398438 41.105469 33.605469 41.230469 C 34.023438 41.472656 34.441406 41.714844 34.863281 41.945312 C 35.707031 42.410156 36.5625 42.84375 37.433594 43.210938 C 37.871094 43.394531 38.3125 43.558594 38.757812 43.699219 C 39.199219 43.835938 39.648438 43.945312 40.089844 44.007812 C 40.527344 44.066406 40.964844 44.078125 41.355469 44.003906 C 41.746094 43.925781 42.082031 43.765625 42.328125 43.5 C 42.574219 43.238281 42.738281 42.871094 42.824219 42.453125 C 42.910156 42.039062 42.917969 41.582031 42.890625 41.121094 C 42.863281 40.664062 42.789062 40.195312 42.695312 39.730469 C 42.601562 39.265625 42.480469 38.800781 42.34375 38.339844 C 42.074219 37.414062 41.738281 36.5 41.375 35.59375 C 41.011719 34.691406 40.617188 33.792969 40.207031 32.898438 L 40.332031 32.832031 C 40.867188 33.660156 41.367188 34.507812 41.828125 35.382812 C 42.289062 36.257812 42.710938 37.160156 43.070312 38.09375 C 43.421875 39.03125 43.71875 40 43.851562 41.03125 C 43.914062 41.546875 43.933594 42.082031 43.851562 42.632812 C 43.808594 42.910156 43.738281 43.1875 43.628906 43.460938 C 43.515625 43.734375 43.359375 44.003906 43.15625 44.238281 " fill-opacity="1" fill-rule="nonzero"/></g></g></g></g><g clip-path="url(#cf641abc25)"><g clip-path="url(#aced739d97)"><g clip-path="url(#a76ea62199)"><path fill="#eacaff" d="M 1.84375 25.980469 C 1.84375 25.984375 1.839844 25.984375 1.839844 25.984375 L 1.832031 25.972656 C 1.835938 25.976562 1.839844 25.976562 1.84375 25.980469 " fill-opacity="1" fill-rule="nonzero"/></g></g></g><g clip-path="url(#1c2386cced)"><g clip-path="url(#e639b536a0)"><g clip-path="url(#6f18c0032d)"><path fill="#eacaff" d="M 17.152344 24.308594 L 15.816406 24.625 L 15.457031 24.710938 C 15.457031 24.710938 14.578125 24.921875 14.570312 24.921875 C 14.367188 24.96875 14.171875 25.050781 14.019531 25.199219 C 13.882812 25.324219 13.800781 25.492188 13.710938 25.648438 C 13.570312 25.894531 13.429688 26.140625 13.289062 26.386719 L 12.496094 27.773438 C 12.390625 27.957031 12.210938 27.980469 12.089844 27.820312 C 11.972656 27.660156 11.925781 27.363281 11.988281 27.15625 L 12.480469 25.554688 L 12.480469 25.550781 L 12.816406 24.476562 L 11.601562 22.960938 L 11.511719 22.851562 L 8.046875 18.542969 L 7.945312 18.71875 L 7.945312 18.722656 L 7.929688 18.710938 L 7.28125 19.722656 L 7.277344 19.730469 L 3.59375 25.894531 C 3.515625 26.023438 3.410156 26.089844 3.320312 26.023438 L 3.3125 26.023438 C 3.277344 25.996094 3.238281 25.960938 3.207031 25.917969 L 2.675781 25.199219 C 2.550781 25.035156 2.503906 24.742188 2.574219 24.546875 L 3.253906 22.703125 C 3.207031 22.675781 3.1875 22.625 3.152344 22.582031 L 2.917969 22.265625 L 2.855469 22.183594 C 2.730469 22.015625 2.722656 21.800781 2.886719 21.675781 L 3.007812 21.585938 C 3.0625 21.546875 3.128906 21.519531 3.195312 21.507812 C 3.339844 21.484375 3.5 21.527344 3.582031 21.640625 L 3.636719 21.710938 L 4.21875 20.101562 C 4.171875 20.074219 4.105469 20.058594 4.070312 20.011719 L 3.949219 19.847656 L 3.78125 19.625 C 3.660156 19.457031 3.695312 19.214844 3.859375 19.089844 L 3.980469 19 C 4.089844 18.917969 4.253906 18.890625 4.386719 18.929688 C 4.457031 18.949219 4.519531 18.984375 4.5625 19.042969 L 4.609375 19.101562 L 5.269531 17.289062 L 5.300781 17.207031 L 5.765625 15.933594 L 5.832031 15.757812 L 4.066406 13.617188 L 4.054688 13.601562 C 3.652344 13.101562 3.132812 11.933594 3.105469 11.191406 C 3.097656 10.9375 3.144531 10.730469 3.277344 10.621094 C 3.398438 10.519531 3.582031 10.507812 3.800781 10.5625 C 4.488281 10.726562 5.503906 11.53125 5.914062 12.042969 C 5.917969 12.050781 6.507812 12.898438 7.359375 14.136719 C 7.386719 14.179688 7.414062 14.21875 7.445312 14.261719 C 7.488281 14.324219 7.53125 14.386719 7.578125 14.449219 L 7.703125 14.441406 L 7.789062 14.4375 L 8.949219 14.359375 L 11.164062 14.214844 L 11.121094 14.15625 C 10.996094 13.988281 11.023438 13.75 11.1875 13.628906 L 11.308594 13.539062 C 11.476562 13.414062 11.671875 13.484375 11.796875 13.652344 L 12.085938 14.039062 C 12.121094 14.082031 12.171875 14.113281 12.183594 14.164062 L 13.941406 14.03125 L 13.886719 13.957031 C 13.765625 13.792969 13.777344 13.558594 13.945312 13.433594 L 14.066406 13.34375 C 14.234375 13.21875 14.492188 13.25 14.617188 13.414062 L 14.914062 13.816406 C 14.949219 13.859375 14.96875 13.910156 14.980469 13.960938 L 16.941406 13.835938 C 17.148438 13.820312 17.433594 13.9375 17.558594 14.105469 L 18.09375 14.820312 C 18.214844 14.984375 18.140625 15.175781 17.9375 15.226562 L 11.253906 16.957031 L 9.90625 17.304688 L 9.59375 17.386719 C 9.65625 17.476562 9.71875 17.570312 9.78125 17.660156 C 11.511719 20.171875 13.304688 22.769531 13.921875 23.667969 L 14.996094 23.65625 L 16.210938 23.648438 L 16.710938 23.644531 C 16.925781 23.640625 17.195312 23.769531 17.316406 23.929688 C 17.433594 24.089844 17.359375 24.257812 17.152344 24.308594 " fill-opacity="1" fill-rule="nonzero"/></g></g></g><g fill="#d697ff" fill-opacity="1"><g transform="translate(52.580786, 29.564825)"><g><path d="M 7.4375 0.25 C 7.300781 0.269531 7.171875 0.28125 7.046875 0.28125 C 5.785156 0.28125 4.660156 0.0078125 3.671875 -0.53125 C 2.691406 -1.070312 1.925781 -1.820312 1.375 -2.78125 C 0.820312 -3.75 0.546875 -4.847656 0.546875 -6.078125 C 0.546875 -7.316406 0.820312 -8.421875 1.375 -9.390625 C 1.925781 -10.359375 2.691406 -11.109375 3.671875 -11.640625 C 4.660156 -12.179688 5.789062 -12.453125 7.0625 -12.453125 C 8.34375 -12.453125 9.472656 -12.179688 10.453125 -11.640625 C 11.441406 -11.109375 12.210938 -10.359375 12.765625 -9.390625 C 13.316406 -8.429688 13.59375 -7.328125 13.59375 -6.078125 C 13.59375 -5.097656 13.394531 -4.171875 13 -3.296875 C 12.613281 -2.429688 12.054688 -1.691406 11.328125 -1.078125 L 13.59375 0.40625 L 13.59375 1.078125 L 11.359375 2.8125 Z M 7.0625 -2.9375 C 7.8125 -2.9375 8.425781 -3.222656 8.90625 -3.796875 C 9.382812 -4.378906 9.625 -5.144531 9.625 -6.09375 C 9.625 -6.71875 9.515625 -7.273438 9.296875 -7.765625 C 9.078125 -8.253906 8.769531 -8.640625 8.375 -8.921875 C 7.988281 -9.203125 7.546875 -9.34375 7.046875 -9.34375 C 6.566406 -9.34375 6.128906 -9.203125 5.734375 -8.921875 C 5.347656 -8.640625 5.046875 -8.253906 4.828125 -7.765625 C 4.617188 -7.273438 4.515625 -6.71875 4.515625 -6.09375 C 4.515625 -5.144531 4.75 -4.378906 5.21875 -3.796875 C 5.695312 -3.222656 6.3125 -2.9375 7.0625 -2.9375 Z M 7.0625 -2.9375 "/></g></g></g><g fill="#d697ff" fill-opacity="1"><g transform="translate(66.716676, 29.564825)"><g><path d="M 3.453125 -12.1875 L 8.84375 -12.1875 L 12.375 0 L 8.203125 0 L 7.75 -2.34375 L 4.59375 -2.34375 L 4.078125 0 L 0.09375 0 Z M 7.3125 -4.515625 L 6.171875 -9.859375 L 4.96875 -4.515625 Z M 7.3125 -4.515625 "/></g></g></g><g fill="#d697ff" fill-opacity="1"><g transform="translate(79.098865, 29.564825)"><g><path d="M 1.15625 -12.1875 L 5.25 -12.1875 L 5.25 0 L 1.15625 0 Z M 1.15625 -12.1875 "/></g></g></g><g fill="#d697ff" fill-opacity="1"><g transform="translate(85.493672, 29.564825)"><g><path d="M 10.390625 0.28125 C 8.160156 0.28125 6.800781 -0.742188 6.3125 -2.796875 L 5.859375 -4.625 L 5.03125 -4.625 L 5.03125 0 L 1.15625 0 L 1.15625 -12.1875 L 6.515625 -12.1875 C 7.535156 -12.1875 8.429688 -12.035156 9.203125 -11.734375 C 9.972656 -11.429688 10.570312 -11.007812 11 -10.46875 C 11.425781 -9.925781 11.640625 -9.300781 11.640625 -8.59375 C 11.640625 -7.800781 11.445312 -7.132812 11.0625 -6.59375 C 10.675781 -6.0625 10.082031 -5.625 9.28125 -5.28125 C 9.363281 -4.832031 9.457031 -4.425781 9.5625 -4.0625 C 9.707031 -3.613281 9.90625 -3.300781 10.15625 -3.125 C 10.40625 -2.945312 10.765625 -2.859375 11.234375 -2.859375 C 11.398438 -2.859375 11.660156 -2.878906 12.015625 -2.921875 L 12.015625 -0.03125 C 11.460938 0.175781 10.921875 0.28125 10.390625 0.28125 Z M 5.703125 -7.109375 C 6.578125 -7.109375 7.191406 -7.203125 7.546875 -7.390625 C 7.910156 -7.585938 8.09375 -7.925781 8.09375 -8.40625 C 8.09375 -8.800781 7.945312 -9.085938 7.65625 -9.265625 C 7.363281 -9.453125 6.894531 -9.546875 6.25 -9.546875 L 5.03125 -9.546875 L 5.03125 -7.109375 Z M 5.703125 -7.109375 "/></g></g></g><g fill="#d697ff" fill-opacity="1"><g transform="translate(97.85815, 29.564825)"><g><path d="M 1.15625 -12.1875 L 4.984375 -12.1875 L 4.984375 -2.6875 L 9.21875 -2.6875 L 9.21875 0 L 1.15625 0 Z M 1.15625 -12.1875 "/></g></g></g><g fill="#d697ff" fill-opacity="1"><g transform="translate(107.388361, 29.564825)"><g><path d="M 1.15625 -12.1875 L 5.25 -12.1875 L 5.25 0 L 1.15625 0 Z M 1.15625 -12.1875 "/></g></g></g><g fill="#d697ff" fill-opacity="1"><g transform="translate(113.783168, 29.564825)"><g><path d="M 1.15625 -12.1875 L 4.71875 -12.1875 L 9.5625 -5.609375 L 9.5625 -12.1875 L 12.734375 -12.1875 L 12.734375 0 L 9.203125 0 L 4.3125 -6.34375 L 4.3125 0 L 1.15625 0 Z M 1.15625 -12.1875 "/></g></g></g><g fill="#d697ff" fill-opacity="1"><g transform="translate(127.671061, 29.564825)"><g><path d="M 1.15625 -12.1875 L 9.703125 -12.1875 L 9.703125 -9.5 L 5.453125 -9.5 L 5.453125 -7.28125 L 9.34375 -7.28125 L 9.34375 -5.046875 L 5.453125 -5.046875 L 5.453125 -2.6875 L 9.703125 -2.6875 L 9.703125 0 L 1.15625 0 Z M 1.15625 -12.1875 "/></g></g></g><g fill="#d697ff" fill-opacity="1"><g transform="translate(45.67174, 43.228084)"><g><path d="M 3.515625 -1.375 L 5.765625 -7.859375 L 6.890625 -7.859375 L 3.984375 0 L 3.0625 0 L 0.15625 -7.859375 L 1.28125 -7.859375 Z M 3.515625 -1.375 "/></g></g></g><g fill="#d697ff" fill-opacity="1"><g transform="translate(52.710115, 43.228084)"><g><path d="M 4.359375 -0.578125 C 3.972656 -0.117188 3.40625 0.109375 2.65625 0.109375 C 2.03125 0.109375 1.550781 -0.0703125 1.21875 -0.4375 C 0.894531 -0.800781 0.734375 -1.335938 0.734375 -2.046875 L 0.734375 -5.84375 L 1.734375 -5.84375 L 1.734375 -2.0625 C 1.734375 -1.175781 2.09375 -0.734375 2.8125 -0.734375 C 3.570312 -0.734375 4.082031 -1.019531 4.34375 -1.59375 L 4.34375 -5.84375 L 5.34375 -5.84375 L 5.34375 0 L 4.390625 0 Z M 4.359375 -0.578125 "/></g></g></g><g fill="#d697ff" fill-opacity="1"><g transform="translate(58.808601, 43.228084)"><g><path d="M 1.84375 0 L 0.84375 0 L 0.84375 -5.84375 L 1.84375 -5.84375 Z M 0.765625 -7.390625 C 0.765625 -7.554688 0.8125 -7.691406 0.90625 -7.796875 C 1.007812 -7.910156 1.15625 -7.96875 1.34375 -7.96875 C 1.539062 -7.96875 1.6875 -7.910156 1.78125 -7.796875 C 1.882812 -7.691406 1.9375 -7.554688 1.9375 -7.390625 C 1.9375 -7.234375 1.882812 -7.097656 1.78125 -6.984375 C 1.6875 -6.878906 1.539062 -6.828125 1.34375 -6.828125 C 1.15625 -6.828125 1.007812 -6.878906 0.90625 -6.984375 C 0.8125 -7.097656 0.765625 -7.234375 0.765625 -7.390625 Z M 0.765625 -7.390625 "/></g></g></g><g fill="#d697ff" fill-opacity="1"><g transform="translate(61.493234, 43.228084)"><g/></g></g><g fill="#d697ff" fill-opacity="1"><g transform="translate(64.231883, 43.228084)"><g><path d="M 2.109375 -7.265625 L 2.109375 -5.84375 L 3.203125 -5.84375 L 3.203125 -5.078125 L 2.109375 -5.078125 L 2.109375 -1.453125 C 2.109375 -1.210938 2.15625 -1.035156 2.25 -0.921875 C 2.351562 -0.804688 2.519531 -0.75 2.75 -0.75 C 2.863281 -0.75 3.023438 -0.769531 3.234375 -0.8125 L 3.234375 0 C 2.960938 0.0703125 2.707031 0.109375 2.46875 0.109375 C 2.019531 0.109375 1.679688 -0.0234375 1.453125 -0.296875 C 1.222656 -0.566406 1.109375 -0.953125 1.109375 -1.453125 L 1.109375 -5.078125 L 0.046875 -5.078125 L 0.046875 -5.84375 L 1.109375 -5.84375 L 1.109375 -7.265625 Z M 2.109375 -7.265625 "/></g></g></g><g fill="#d697ff" fill-opacity="1"><g transform="translate(67.845603, 43.228084)"><g><path d="M 7 -6.3125 C 7 -5.664062 6.863281 -5.207031 6.59375 -4.9375 C 6.332031 -4.675781 5.914062 -4.535156 5.34375 -4.515625 L 5.34375 0 L 4.390625 0 L 4.359375 -0.578125 C 3.972656 -0.117188 3.40625 0.109375 2.65625 0.109375 C 2.03125 0.109375 1.550781 -0.0703125 1.21875 -0.4375 C 0.894531 -0.800781 0.734375 -1.335938 0.734375 -2.046875 L 0.734375 -5.84375 L 1.734375 -5.84375 L 1.734375 -2.0625 C 1.734375 -1.175781 2.09375 -0.734375 2.8125 -0.734375 C 3.570312 -0.734375 4.082031 -1.019531 4.34375 -1.59375 L 4.34375 -5.84375 L 5.34375 -5.84375 L 5.34375 -5.140625 C 5.582031 -5.140625 5.765625 -5.171875 5.890625 -5.234375 C 6.015625 -5.304688 6.101562 -5.40625 6.15625 -5.53125 C 6.207031 -5.65625 6.234375 -5.914062 6.234375 -6.3125 Z M 3.703125 -6.59375 L 2.84375 -6.59375 L 1.453125 -8.1875 L 2.65625 -8.1875 Z M 3.703125 -6.59375 "/></g></g></g><g fill="#d697ff" fill-opacity="1"><g transform="translate(74.689518, 43.228084)"><g><path d="M 1.703125 -5.84375 L 1.734375 -5.109375 C 2.179688 -5.671875 2.765625 -5.953125 3.484375 -5.953125 C 4.722656 -5.953125 5.347656 -5.253906 5.359375 -3.859375 L 5.359375 0 L 4.359375 0 L 4.359375 -3.875 C 4.347656 -4.289062 4.25 -4.597656 4.0625 -4.796875 C 3.875 -5.003906 3.582031 -5.109375 3.1875 -5.109375 C 2.863281 -5.109375 2.578125 -5.019531 2.328125 -4.84375 C 2.078125 -4.675781 1.882812 -4.453125 1.75 -4.171875 L 1.75 0 L 0.75 0 L 0.75 -5.84375 Z M 1.703125 -5.84375 "/></g></g></g><g fill="#d697ff" fill-opacity="1"><g transform="translate(80.7934, 43.228084)"><g><path d="M 0.515625 -2.96875 C 0.515625 -3.882812 0.722656 -4.609375 1.140625 -5.140625 C 1.566406 -5.679688 2.128906 -5.953125 2.828125 -5.953125 C 3.535156 -5.953125 4.09375 -5.703125 4.5 -5.203125 L 4.546875 -5.84375 L 5.453125 -5.84375 L 5.453125 -0.140625 C 5.453125 0.617188 5.226562 1.210938 4.78125 1.640625 C 4.332031 2.078125 3.726562 2.296875 2.96875 2.296875 C 2.550781 2.296875 2.140625 2.207031 1.734375 2.03125 C 1.335938 1.851562 1.03125 1.609375 0.8125 1.296875 L 1.328125 0.6875 C 1.765625 1.21875 2.289062 1.484375 2.90625 1.484375 C 3.394531 1.484375 3.773438 1.347656 4.046875 1.078125 C 4.316406 0.804688 4.453125 0.421875 4.453125 -0.078125 L 4.453125 -0.578125 C 4.046875 -0.117188 3.5 0.109375 2.8125 0.109375 C 2.125 0.109375 1.566406 -0.164062 1.140625 -0.71875 C 0.722656 -1.269531 0.515625 -2.019531 0.515625 -2.96875 Z M 1.515625 -2.859375 C 1.515625 -2.203125 1.648438 -1.679688 1.921875 -1.296875 C 2.191406 -0.921875 2.570312 -0.734375 3.0625 -0.734375 C 3.695312 -0.734375 4.160156 -1.019531 4.453125 -1.59375 L 4.453125 -4.265625 C 4.140625 -4.828125 3.679688 -5.109375 3.078125 -5.109375 C 2.585938 -5.109375 2.203125 -4.914062 1.921875 -4.53125 C 1.648438 -4.15625 1.515625 -3.597656 1.515625 -2.859375 Z M 1.515625 -2.859375 "/></g></g></g><g fill="#d697ff" fill-opacity="1"><g transform="translate(89.738568, 43.228084)"><g><path d="M 3.09375 -0.703125 C 3.457031 -0.703125 3.769531 -0.8125 4.03125 -1.03125 C 4.300781 -1.25 4.453125 -1.519531 4.484375 -1.84375 L 5.421875 -1.84375 C 5.398438 -1.507812 5.285156 -1.191406 5.078125 -0.890625 C 4.867188 -0.585938 4.582031 -0.34375 4.21875 -0.15625 C 3.863281 0.0195312 3.488281 0.109375 3.09375 0.109375 C 2.300781 0.109375 1.671875 -0.15625 1.203125 -0.6875 C 0.734375 -1.21875 0.5 -1.945312 0.5 -2.875 L 0.5 -3.03125 C 0.5 -3.601562 0.601562 -4.109375 0.8125 -4.546875 C 1.019531 -4.992188 1.316406 -5.335938 1.703125 -5.578125 C 2.097656 -5.828125 2.5625 -5.953125 3.09375 -5.953125 C 3.75 -5.953125 4.289062 -5.753906 4.71875 -5.359375 C 5.15625 -4.972656 5.390625 -4.460938 5.421875 -3.828125 L 4.484375 -3.828125 C 4.453125 -4.210938 4.304688 -4.523438 4.046875 -4.765625 C 3.785156 -5.003906 3.46875 -5.125 3.09375 -5.125 C 2.582031 -5.125 2.1875 -4.941406 1.90625 -4.578125 C 1.632812 -4.210938 1.5 -3.6875 1.5 -3 L 1.5 -2.8125 C 1.5 -2.132812 1.632812 -1.613281 1.90625 -1.25 C 2.1875 -0.882812 2.582031 -0.703125 3.09375 -0.703125 Z M 3.09375 -0.703125 "/></g></g></g><g fill="#d697ff" fill-opacity="1"><g transform="translate(95.529153, 43.228084)"><g><path d="M 1.75 -5.140625 C 2.195312 -5.679688 2.773438 -5.953125 3.484375 -5.953125 C 4.722656 -5.953125 5.347656 -5.253906 5.359375 -3.859375 L 5.359375 0 L 4.359375 0 L 4.359375 -3.875 C 4.347656 -4.289062 4.25 -4.597656 4.0625 -4.796875 C 3.875 -5.003906 3.582031 -5.109375 3.1875 -5.109375 C 2.863281 -5.109375 2.578125 -5.019531 2.328125 -4.84375 C 2.078125 -4.675781 1.882812 -4.453125 1.75 -4.171875 L 1.75 0 L 0.75 0 L 0.75 -8.296875 L 1.75 -8.296875 Z M 1.75 -5.140625 "/></g></g></g><g fill="#d697ff" fill-opacity="1"><g transform="translate(101.622231, 43.228084)"><g><path d="M 4.359375 -0.578125 C 3.972656 -0.117188 3.40625 0.109375 2.65625 0.109375 C 2.03125 0.109375 1.550781 -0.0703125 1.21875 -0.4375 C 0.894531 -0.800781 0.734375 -1.335938 0.734375 -2.046875 L 0.734375 -5.84375 L 1.734375 -5.84375 L 1.734375 -2.0625 C 1.734375 -1.175781 2.09375 -0.734375 2.8125 -0.734375 C 3.570312 -0.734375 4.082031 -1.019531 4.34375 -1.59375 L 4.34375 -5.84375 L 5.34375 -5.84375 L 5.34375 0 L 4.390625 0 Z M 4.359375 -0.578125 "/></g></g></g><g fill="#d697ff" fill-opacity="1"><g transform="translate(107.720716, 43.228084)"><g><path d="M 2.671875 -1.46875 L 4.03125 -5.84375 L 5.09375 -5.84375 L 2.75 0.90625 C 2.382812 1.875 1.804688 2.359375 1.015625 2.359375 L 0.828125 2.34375 L 0.453125 2.28125 L 0.453125 1.46875 L 0.71875 1.484375 C 1.0625 1.484375 1.328125 1.414062 1.515625 1.28125 C 1.703125 1.144531 1.859375 0.894531 1.984375 0.53125 L 2.203125 -0.0625 L 0.125 -5.84375 L 1.203125 -5.84375 Z M 2.671875 -1.46875 "/></g></g></g><g fill="#d697ff" fill-opacity="1"><g transform="translate(112.954935, 43.228084)"><g><path d="M 3.1875 0.109375 C 2.394531 0.109375 1.75 -0.148438 1.25 -0.671875 C 0.75 -1.191406 0.5 -1.890625 0.5 -2.765625 L 0.5 -2.9375 C 0.5 -3.519531 0.609375 -4.039062 0.828125 -4.5 C 1.054688 -4.957031 1.367188 -5.3125 1.765625 -5.5625 C 2.160156 -5.820312 2.59375 -5.953125 3.0625 -5.953125 C 3.820312 -5.953125 4.410156 -5.703125 4.828125 -5.203125 C 5.253906 -4.703125 5.46875 -3.984375 5.46875 -3.046875 L 5.46875 -2.640625 L 1.5 -2.640625 C 1.507812 -2.054688 1.675781 -1.585938 2 -1.234375 C 2.320312 -0.878906 2.734375 -0.703125 3.234375 -0.703125 C 3.585938 -0.703125 3.882812 -0.773438 4.125 -0.921875 C 4.375 -1.066406 4.59375 -1.257812 4.78125 -1.5 L 5.390625 -1.015625 C 4.898438 -0.265625 4.164062 0.109375 3.1875 0.109375 Z M 3.0625 -5.125 C 2.65625 -5.125 2.3125 -4.976562 2.03125 -4.6875 C 1.757812 -4.394531 1.59375 -3.984375 1.53125 -3.453125 L 4.46875 -3.453125 L 4.46875 -3.53125 C 4.4375 -4.039062 4.296875 -4.429688 4.046875 -4.703125 C 3.804688 -4.984375 3.476562 -5.125 3.0625 -5.125 Z M 2.640625 -8.140625 L 3.46875 -8.140625 L 5.03125 -6.71875 L 3.96875 -6.71875 L 3.046875 -7.578125 L 2.125 -6.71875 L 1.0625 -6.71875 Z M 5.390625 -9.078125 L 6.46875 -9.078125 L 5.390625 -7.671875 L 4.625 -7.671875 Z M 5.390625 -9.078125 "/></g></g></g><g fill="#d697ff" fill-opacity="1"><g transform="translate(118.815747, 43.228084)"><g><path d="M 1.703125 -5.84375 L 1.734375 -5.109375 C 2.179688 -5.671875 2.765625 -5.953125 3.484375 -5.953125 C 4.722656 -5.953125 5.347656 -5.253906 5.359375 -3.859375 L 5.359375 0 L 4.359375 0 L 4.359375 -3.875 C 4.347656 -4.289062 4.25 -4.597656 4.0625 -4.796875 C 3.875 -5.003906 3.582031 -5.109375 3.1875 -5.109375 C 2.863281 -5.109375 2.578125 -5.019531 2.328125 -4.84375 C 2.078125 -4.675781 1.882812 -4.453125 1.75 -4.171875 L 1.75 0 L 0.75 0 L 0.75 -5.84375 Z M 1.703125 -5.84375 "/></g></g></g><g fill="#d697ff" fill-opacity="1"><g transform="translate(124.919629, 43.228084)"><g/></g></g><g fill="#d697ff" fill-opacity="1"><g transform="translate(127.658279, 43.228084)"><g><path d="M 5.703125 -2.859375 C 5.703125 -1.960938 5.492188 -1.242188 5.078125 -0.703125 C 4.671875 -0.160156 4.125 0.109375 3.4375 0.109375 C 2.695312 0.109375 2.125 -0.148438 1.71875 -0.671875 L 1.671875 0 L 0.75 0 L 0.75 -8.296875 L 1.75 -8.296875 L 1.75 -5.203125 C 2.15625 -5.703125 2.710938 -5.953125 3.421875 -5.953125 C 4.128906 -5.953125 4.6875 -5.679688 5.09375 -5.140625 C 5.5 -4.609375 5.703125 -3.875 5.703125 -2.9375 Z M 4.703125 -2.96875 C 4.703125 -3.644531 4.570312 -4.171875 4.3125 -4.546875 C 4.050781 -4.921875 3.671875 -5.109375 3.171875 -5.109375 C 2.515625 -5.109375 2.039062 -4.800781 1.75 -4.1875 L 1.75 -1.65625 C 2.0625 -1.039062 2.539062 -0.734375 3.1875 -0.734375 C 3.664062 -0.734375 4.035156 -0.921875 4.296875 -1.296875 C 4.566406 -1.671875 4.703125 -2.226562 4.703125 -2.96875 Z M 4.703125 -2.96875 "/></g></g></g><g fill="#d697ff" fill-opacity="1"><g transform="translate(133.864797, 43.228084)"><g><path d="M 4.359375 0 C 4.304688 -0.113281 4.257812 -0.316406 4.21875 -0.609375 C 3.757812 -0.128906 3.207031 0.109375 2.5625 0.109375 C 1.988281 0.109375 1.515625 -0.0507812 1.140625 -0.375 C 0.773438 -0.707031 0.59375 -1.125 0.59375 -1.625 C 0.59375 -2.226562 0.820312 -2.695312 1.28125 -3.03125 C 1.75 -3.375 2.398438 -3.546875 3.234375 -3.546875 L 4.203125 -3.546875 L 4.203125 -4 C 4.203125 -4.351562 4.097656 -4.628906 3.890625 -4.828125 C 3.679688 -5.035156 3.375 -5.140625 2.96875 -5.140625 C 2.613281 -5.140625 2.316406 -5.050781 2.078125 -4.875 C 1.835938 -4.695312 1.71875 -4.476562 1.71875 -4.21875 L 0.703125 -4.21875 C 0.703125 -4.507812 0.804688 -4.789062 1.015625 -5.0625 C 1.222656 -5.34375 1.503906 -5.5625 1.859375 -5.71875 C 2.210938 -5.875 2.601562 -5.953125 3.03125 -5.953125 C 3.707031 -5.953125 4.234375 -5.78125 4.609375 -5.4375 C 4.992188 -5.101562 5.191406 -4.644531 5.203125 -4.0625 L 5.203125 -1.359375 C 5.203125 -0.828125 5.269531 -0.40625 5.40625 -0.09375 L 5.40625 0 Z M 2.703125 -0.765625 C 3.015625 -0.765625 3.3125 -0.84375 3.59375 -1 C 3.875 -1.164062 4.078125 -1.378906 4.203125 -1.640625 L 4.203125 -2.828125 L 3.421875 -2.828125 C 2.203125 -2.828125 1.59375 -2.472656 1.59375 -1.765625 C 1.59375 -1.453125 1.695312 -1.207031 1.90625 -1.03125 C 2.113281 -0.851562 2.378906 -0.765625 2.703125 -0.765625 Z M 2.703125 -0.765625 "/></g></g></g><g fill="#d697ff" fill-opacity="1"><g transform="translate(139.882252, 43.228084)"><g><path d="M 2.671875 -1.46875 L 4.03125 -5.84375 L 5.09375 -5.84375 L 2.75 0.90625 C 2.382812 1.875 1.804688 2.359375 1.015625 2.359375 L 0.828125 2.34375 L 0.453125 2.28125 L 0.453125 1.46875 L 0.71875 1.484375 C 1.0625 1.484375 1.328125 1.414062 1.515625 1.28125 C 1.703125 1.144531 1.859375 0.894531 1.984375 0.53125 L 2.203125 -0.0625 L 0.125 -5.84375 L 1.203125 -5.84375 Z M 2.671875 -1.46875 "/></g></g></g></svg>