<svg xmlns="http://www.w3.org/2000/svg" xmlns:xlink="http://www.w3.org/1999/xlink" width="500" zoomAndPan="magnify" viewBox="0 0 375 374.999991" height="500" preserveAspectRatio="xMidYMid meet" version="1.0"><defs><clipPath id="86f9cc2a18"><path d="M 67.074219 69.683594 L 293.128906 69.683594 L 293.128906 305.449219 L 67.074219 305.449219 Z M 67.074219 69.683594 " clip-rule="nonzero"/></clipPath><clipPath id="61fad6b81f"><path d="M 180.101562 69.683594 C 117.679688 69.683594 67.074219 122.429688 67.074219 187.5 C 67.074219 252.570312 117.679688 305.316406 180.101562 305.316406 C 242.527344 305.316406 293.128906 252.570312 293.128906 187.5 C 293.128906 122.429688 242.527344 69.683594 180.101562 69.683594 Z M 180.101562 69.683594 " clip-rule="nonzero"/></clipPath><clipPath id="d5450e49ef"><path d="M 135 194 L 136 194 L 136 195 L 135 195 Z M 135 194 " clip-rule="nonzero"/></clipPath><clipPath id="11fcdc61f2"><path d="M 74.371094 90.84375 L 342.644531 180.152344 L 300.949219 305.394531 L 32.675781 216.085938 Z M 74.371094 90.84375 " clip-rule="nonzero"/></clipPath><clipPath id="856c019ef8"><path d="M 342.320312 180.042969 L 74.046875 90.734375 L 32.355469 215.976562 L 300.628906 305.285156 Z M 342.320312 180.042969 " clip-rule="nonzero"/></clipPath><clipPath id="3ca70e3e0c"><path d="M 201 235 L 202 235 L 202 236 L 201 236 Z M 201 235 " clip-rule="nonzero"/></clipPath><clipPath id="59de58580e"><path d="M 74.371094 90.84375 L 342.644531 180.152344 L 300.949219 305.394531 L 32.675781 216.085938 Z M 74.371094 90.84375 " clip-rule="nonzero"/></clipPath><clipPath id="43c7674530"><path d="M 342.320312 180.042969 L 74.046875 90.734375 L 32.355469 215.976562 L 300.628906 305.285156 Z M 342.320312 180.042969 " clip-rule="nonzero"/></clipPath><clipPath id="d271ab8abf"><path d="M 236 260 L 237 260 L 237 261 L 236 261 Z M 236 260 " clip-rule="nonzero"/></clipPath><clipPath id="037102284d"><path d="M 74.371094 90.84375 L 342.644531 180.152344 L 300.949219 305.394531 L 32.675781 216.085938 Z M 74.371094 90.84375 " clip-rule="nonzero"/></clipPath><clipPath id="0d394082b3"><path d="M 342.320312 180.042969 L 74.046875 90.734375 L 32.355469 215.976562 L 300.628906 305.285156 Z M 342.320312 180.042969 " clip-rule="nonzero"/></clipPath><clipPath id="de03ca7770"><path d="M 139 187 L 308 187 L 308 299 L 139 299 Z M 139 187 " clip-rule="nonzero"/></clipPath><clipPath id="ca7aa7a5db"><path d="M 74.371094 90.84375 L 342.644531 180.152344 L 300.949219 305.394531 L 32.675781 216.085938 Z M 74.371094 90.84375 " clip-rule="nonzero"/></clipPath><clipPath id="e00f0a2f97"><path d="M 342.320312 180.042969 L 74.046875 90.734375 L 32.355469 215.976562 L 300.628906 305.285156 Z M 342.320312 180.042969 " clip-rule="nonzero"/></clipPath><clipPath id="01c30f2b75"><path d="M 322.738281 238.871094 L 142.335938 178.816406 L 120.238281 245.195312 L 300.640625 305.253906 Z M 322.738281 238.871094 " clip-rule="nonzero"/></clipPath><clipPath id="042fd29dfa"><path d="M 64 187 L 65 187 L 65 188 L 64 188 Z M 64 187 " clip-rule="nonzero"/></clipPath><clipPath id="e9e0328b96"><path d="M 74.371094 90.84375 L 342.644531 180.152344 L 300.949219 305.394531 L 32.675781 216.085938 Z M 74.371094 90.84375 " clip-rule="nonzero"/></clipPath><clipPath id="29bbc70c4e"><path d="M 342.320312 180.042969 L 74.046875 90.734375 L 32.355469 215.976562 L 300.628906 305.285156 Z M 342.320312 180.042969 " clip-rule="nonzero"/></clipPath><clipPath id="fb9cebafea"><path d="M 68 97 L 159 97 L 159 199 L 68 199 Z M 68 97 " clip-rule="nonzero"/></clipPath><clipPath id="e3d7e21627"><path d="M 74.371094 90.84375 L 342.644531 180.152344 L 300.949219 305.394531 L 32.675781 216.085938 Z M 74.371094 90.84375 " clip-rule="nonzero"/></clipPath><clipPath id="9bc6a6178a"><path d="M 342.320312 180.042969 L 74.046875 90.734375 L 32.355469 215.976562 L 300.628906 305.285156 Z M 342.320312 180.042969 " clip-rule="nonzero"/></clipPath></defs><g clip-path="url(#86f9cc2a18)"><g clip-path="url(#61fad6b81f)"><path fill="#d697ff" d="M 67.074219 69.683594 L 293.128906 69.683594 L 293.128906 305.449219 L 67.074219 305.449219 Z M 67.074219 69.683594 " fill-opacity="1" fill-rule="nonzero"/></g></g><g clip-path="url(#d5450e49ef)"><g clip-path="url(#11fcdc61f2)"><g clip-path="url(#856c019ef8)"><path fill="#eacaff" d="M 135.355469 194.757812 L 135.371094 194.730469 L 135.375 194.734375 Z M 135.355469 194.757812 " fill-opacity="1" fill-rule="nonzero"/></g></g></g><g clip-path="url(#3ca70e3e0c)"><g clip-path="url(#59de58580e)"><g clip-path="url(#43c7674530)"><path fill="#eacaff" d="M 201.808594 235.507812 L 201.804688 235.507812 C 201.820312 235.492188 201.839844 235.472656 201.855469 235.453125 L 201.859375 235.457031 C 201.84375 235.472656 201.824219 235.492188 201.808594 235.507812 " fill-opacity="1" fill-rule="nonzero"/></g></g></g><g clip-path="url(#d271ab8abf)"><g clip-path="url(#037102284d)"><g clip-path="url(#0d394082b3)"><path fill="#eacaff" d="M 237 260.984375 C 237 260.992188 236.996094 260.992188 236.992188 260.996094 L 237 260.984375 " fill-opacity="1" fill-rule="nonzero"/></g></g></g><g clip-path="url(#de03ca7770)"><g clip-path="url(#ca7aa7a5db)"><g clip-path="url(#e00f0a2f97)"><g clip-path="url(#01c30f2b75)"><path fill="#eacaff" d="M 303.402344 293.148438 C 302.230469 294.511719 300.800781 295.675781 299.246094 296.546875 C 297.6875 297.421875 296.027344 298.007812 294.382812 298.386719 C 291.078125 299.132812 287.84375 299.105469 284.761719 298.769531 C 281.675781 298.417969 278.714844 297.753906 275.839844 296.929688 C 272.964844 296.109375 270.179688 295.097656 267.453125 294 C 262 291.796875 256.789062 289.1875 251.742188 286.335938 C 249.226562 284.90625 246.746094 283.425781 244.308594 281.882812 C 241.867188 280.347656 239.464844 278.753906 237.097656 277.117188 C 233.398438 274.574219 229.78125 271.921875 226.234375 269.191406 C 223.9375 267.425781 221.667969 265.625 219.417969 263.796875 C 216.246094 261.226562 213.117188 258.597656 210.019531 255.949219 C 204.847656 251.503906 199.757812 246.972656 194.71875 242.398438 C 192.675781 240.542969 190.636719 238.679688 188.605469 236.8125 C 187.25 235.574219 185.902344 234.332031 184.558594 233.089844 C 176.195312 225.355469 167.921875 217.527344 159.75 209.597656 C 154.296875 204.296875 148.808594 198.933594 143.425781 193.546875 C 142.441406 192.5625 140.828125 190.933594 139.757812 189.851562 C 139.042969 189.125 139.277344 187.878906 140.226562 187.511719 C 140.28125 187.492188 140.335938 187.472656 140.386719 187.464844 C 141.769531 187.144531 143.210938 187.605469 144.15625 188.660156 C 144.707031 189.277344 145.296875 189.941406 145.714844 190.414062 C 150.910156 196.28125 156.230469 202.035156 161.703125 207.644531 C 169.621094 215.773438 177.816406 223.628906 186.339844 231.113281 C 186.933594 231.640625 187.535156 232.160156 188.136719 232.675781 C 188.4375 232.949219 188.742188 233.210938 189.050781 233.472656 C 189.1875 233.589844 189.328125 233.707031 189.460938 233.820312 C 189.667969 234 189.875 234.179688 190.082031 234.355469 C 190.285156 234.53125 190.488281 234.707031 190.691406 234.878906 C 190.84375 235.011719 191 235.144531 191.15625 235.273438 C 191.523438 235.585938 191.894531 235.898438 192.257812 236.210938 C 192.265625 236.210938 192.269531 236.21875 192.277344 236.222656 C 192.808594 236.667969 193.335938 237.109375 193.867188 237.554688 C 194.398438 237.996094 194.960938 238.394531 195.5 238.835938 C 196.03125 239.273438 196.570312 239.707031 197.136719 240.105469 L 197.148438 240.117188 C 202.179688 244.488281 207.542969 248.398438 212.898438 252.324219 C 216.664062 255.089844 220.515625 257.734375 224.320312 260.421875 L 224.328125 260.429688 C 226.714844 262.117188 229.09375 263.804688 231.597656 265.304688 C 231.601562 265.308594 231.601562 265.308594 231.605469 265.308594 L 231.632812 265.328125 C 234.636719 267.457031 237.785156 269.378906 240.898438 271.324219 C 242.09375 272.066406 243.273438 272.820312 244.472656 273.546875 C 245.671875 274.273438 246.863281 275.007812 248.074219 275.714844 C 250.492188 277.128906 252.902344 278.535156 255.351562 279.875 C 260.238281 282.550781 265.191406 285.070312 270.246094 287.203125 C 272.777344 288.265625 275.332031 289.207031 277.902344 290.015625 C 280.472656 290.816406 283.0625 291.453125 285.617188 291.800781 C 288.167969 292.148438 290.699219 292.226562 292.964844 291.785156 C 295.234375 291.34375 297.160156 290.402344 298.589844 288.875 C 300.03125 287.363281 300.964844 285.21875 301.460938 282.8125 C 301.960938 280.398438 302.019531 277.757812 301.855469 275.101562 C 301.691406 272.433594 301.273438 269.730469 300.71875 267.035156 C 300.175781 264.339844 299.472656 261.648438 298.691406 258.972656 C 297.117188 253.613281 295.175781 248.320312 293.074219 243.078125 C 290.964844 237.835938 288.675781 232.640625 286.308594 227.46875 L 287.035156 227.070312 C 290.128906 231.863281 293.035156 236.792969 295.703125 241.859375 C 298.375 246.929688 300.8125 252.144531 302.886719 257.554688 C 304.925781 262.976562 306.652344 268.585938 307.414062 274.570312 C 307.777344 277.5625 307.886719 280.664062 307.410156 283.855469 C 307.171875 285.449219 306.773438 287.066406 306.117188 288.65625 C 305.476562 290.234375 304.570312 291.78125 303.402344 293.148438 " fill-opacity="1" fill-rule="nonzero"/></g></g></g></g><g clip-path="url(#042fd29dfa)"><g clip-path="url(#e9e0328b96)"><g clip-path="url(#29bbc70c4e)"><path fill="#eacaff" d="M 64.097656 187.378906 C 64.09375 187.386719 64.089844 187.394531 64.089844 187.398438 C 64.078125 187.40625 64.074219 187.414062 64.070312 187.421875 L 64.015625 187.34375 C 64.042969 187.355469 64.070312 187.367188 64.097656 187.378906 " fill-opacity="1" fill-rule="nonzero"/></g></g></g><g clip-path="url(#fb9cebafea)"><g clip-path="url(#e3d7e21627)"><g clip-path="url(#9bc6a6178a)"><path fill="#eacaff" d="M 152.769531 177.707031 L 145.035156 179.542969 L 142.941406 180.039062 C 142.941406 180.039062 137.847656 181.25 137.808594 181.257812 C 136.632812 181.539062 135.496094 182.011719 134.609375 182.851562 C 133.832031 183.59375 133.355469 184.554688 132.832031 185.472656 C 132.019531 186.898438 131.207031 188.320312 130.394531 189.738281 L 130.386719 189.75 L 125.800781 197.769531 C 125.183594 198.84375 124.128906 198.972656 123.441406 198.046875 C 122.753906 197.125 122.484375 195.394531 122.851562 194.207031 L 125.707031 184.910156 L 125.714844 184.90625 L 127.648438 178.667969 L 120.605469 169.90625 L 120.089844 169.265625 L 120.082031 169.257812 L 100.027344 144.3125 L 99.441406 145.320312 L 99.441406 145.324219 L 99.425781 145.335938 L 99.335938 145.289062 L 95.59375 151.140625 L 95.570312 151.175781 L 74.222656 186.894531 C 73.773438 187.636719 73.171875 188.03125 72.632812 187.648438 L 72.601562 187.628906 C 72.398438 187.480469 72.175781 187.285156 71.984375 187.027344 L 68.898438 182.871094 C 68.179688 181.90625 67.910156 180.207031 68.328125 179.078125 L 72.261719 168.402344 C 71.992188 168.257812 71.867188 167.960938 71.675781 167.699219 L 70.316406 165.875 L 69.949219 165.386719 C 69.230469 164.421875 69.171875 163.179688 70.136719 162.460938 L 70.839844 161.9375 C 71.148438 161.707031 71.527344 161.554688 71.925781 161.488281 C 72.765625 161.347656 73.679688 161.585938 74.167969 162.238281 L 74.480469 162.65625 L 77.835938 153.332031 C 77.566406 153.183594 77.191406 153.082031 76.996094 152.824219 L 76.285156 151.863281 L 75.320312 150.574219 C 74.605469 149.609375 74.808594 148.191406 75.773438 147.472656 L 76.472656 146.949219 C 77.105469 146.480469 78.039062 146.320312 78.8125 146.539062 C 79.226562 146.648438 79.59375 146.871094 79.84375 147.207031 L 80.105469 147.550781 L 83.9375 137.042969 L 84.109375 136.570312 L 86.800781 129.199219 L 87.179688 128.164062 L 76.972656 115.773438 L 76.894531 115.675781 C 74.574219 112.78125 71.5625 106.011719 71.40625 101.714844 C 71.351562 100.242188 71.632812 99.0625 72.390625 98.425781 C 73.097656 97.832031 74.164062 97.769531 75.414062 98.074219 C 79.398438 99.035156 85.289062 103.695312 87.65625 106.65625 C 87.699219 106.710938 91.09375 111.613281 96.046875 118.789062 C 96.207031 119.023438 96.367188 119.257812 96.53125 119.496094 C 96.78125 119.859375 97.039062 120.230469 97.296875 120.605469 L 98.03125 120.554688 L 98.515625 120.523438 L 105.25 120.082031 L 118.085938 119.238281 L 117.824219 118.894531 C 117.105469 117.925781 117.25 116.554688 118.210938 115.835938 L 118.914062 115.3125 C 119.882812 114.59375 121.023438 115.007812 121.746094 115.96875 L 123.417969 118.214844 C 123.609375 118.476562 123.90625 118.640625 123.972656 118.941406 L 134.164062 118.164062 L 133.855469 117.75 C 133.136719 116.785156 133.222656 115.433594 134.1875 114.714844 L 134.890625 114.191406 C 135.851562 113.472656 137.355469 113.636719 138.074219 114.601562 L 139.804688 116.917969 C 139.996094 117.179688 140.113281 117.472656 140.175781 117.773438 L 151.546875 117.035156 C 152.75 116.960938 154.398438 117.625 155.117188 118.589844 L 158.207031 122.738281 C 158.925781 123.699219 158.484375 124.796875 157.316406 125.097656 L 118.601562 135.113281 L 110.800781 137.132812 L 108.980469 137.605469 C 109.34375 138.132812 109.710938 138.664062 110.074219 139.199219 C 120.101562 153.742188 130.464844 168.777344 134.050781 173.984375 L 140.265625 173.933594 L 147.304688 173.875 L 150.207031 173.847656 C 151.445312 173.839844 153.019531 174.585938 153.707031 175.503906 C 154.398438 176.429688 153.972656 177.417969 152.769531 177.707031 " fill-opacity="1" fill-rule="nonzero"/></g></g></g></svg>